<?xml version="1.0" encoding="UTF-8"?>
<svg version="1.1" xmlns="http://www.w3.org/2000/svg" width="200" height="200">
<path d="M0 0 C66 0 132 0 200 0 C200 66 200 132 200 200 C134 200 68 200 0 200 C0 134 0 68 0 0 Z " fill="#033C61" transform="translate(0,0)"/>
<path d="M0 0 C66 0 132 0 200 0 C200 66 200 132 200 200 C134 200 68 200 0 200 C0 134 0 68 0 0 Z M32.3125 39.75 C18.36772795 55.8401216 9.54663854 76.75832901 9.6875 98.125 C9.69313965 99.03588379 9.6987793 99.94676758 9.70458984 100.88525391 C10.16699626 127.01350562 21.26627105 149.55394823 39.77734375 167.7265625 C58.63071942 184.43339471 82.2118216 191.38785766 107.07763672 190.23388672 C131.003888 188.31898708 153.58257 176.31506985 169.34765625 158.3203125 C185.296131 138.13167722 192.40534776 113.44541429 189.78173828 87.87255859 C186.46833985 64.18962111 173.56949917 42.83132548 155 28 C115.66213558 0.64077883 65.59954857 4.58200519 32.3125 39.75 Z " fill="#FCFEFE" transform="translate(0,0)"/>
<path d="M0 0 C21.94274522 0.25580921 42.06333409 10.11823414 58.375 24.25 C57.12655549 27.2298208 55.87595018 30.20873033 54.625 33.1875 C54.27695313 34.01830078 53.92890625 34.84910156 53.5703125 35.70507812 C52.51216809 38.22306992 51.44589391 40.7374054 50.375 43.25 C50.02179688 44.08257324 49.66859375 44.91514648 49.3046875 45.77294922 C48.96179688 46.56588379 48.61890625 47.35881836 48.265625 48.17578125 C47.80978027 49.23599487 47.80978027 49.23599487 47.34472656 50.31762695 C45.78854419 53.41862985 43.70812401 55.68356359 41.375 58.25 C40.323125 59.61125 40.323125 59.61125 39.25 61 C37.375 63.25 37.375 63.25 34.375 65.25 C33.49578081 67.7766598 32.75096884 70.23520009 32.0625 72.8125 C30.1499756 79.49548155 27.66621775 84.72294533 23.375 90.25 C24.63054687 90.37117188 25.88609375 90.49234375 27.1796875 90.6171875 C35.67939517 91.46045623 44.03580618 92.33608666 52.375 94.25 C52.375 94.91 52.375 95.57 52.375 96.25 C47.92 97.24 47.92 97.24 43.375 98.25 C46.015 99.24 48.655 100.23 51.375 101.25 C50.88 102.735 50.88 102.735 50.375 104.25 C45.44229471 105.8942351 42.83475807 104.43615592 38.375 102.25 C39.72804209 104.95608417 41.18466544 105.21183047 43.9375 106.375 C44.76378906 106.72820312 45.59007812 107.08140625 46.44140625 107.4453125 C47.07949219 107.71085937 47.71757812 107.97640625 48.375 108.25 C48.375 108.91 48.375 109.57 48.375 110.25 C42.70223489 110.54341888 39.38432754 110.25559652 34.375 107.25 C36.54187491 109.52521866 38.83120509 111.40794162 41.375 113.25 C40.715 113.91 40.055 114.57 39.375 115.25 C34.23225293 115.14940837 31.36043141 113.77675516 27.33862305 110.65649414 C16.94571394 102.70621538 6.43026364 103.01304501 -6.2434082 103.52368164 C-8.625 103.25 -8.625 103.25 -10.44995117 101.73999023 C-10.83771729 101.24829346 -11.2254834 100.75659668 -11.625 100.25 C-9.645 100.25 -7.665 100.25 -5.625 100.25 C-5.955 98.6 -6.285 96.95 -6.625 95.25 C-5.305 95.25 -3.985 95.25 -2.625 95.25 C-3.285 93.6 -3.945 91.95 -4.625 90.25 C-3.635 89.92 -2.645 89.59 -1.625 89.25 C-2.615 88.26 -3.605 87.27 -4.625 86.25 C-4.625 86.91 -4.625 87.57 -4.625 88.25 C-7.595 89.24 -7.595 89.24 -10.625 90.25 C-8.975 90.91 -7.325 91.57 -5.625 92.25 C-7.605 93.24 -7.605 93.24 -9.625 94.25 C-9.625 95.24 -9.625 96.23 -9.625 97.25 C-12.595 97.745 -12.595 97.745 -15.625 98.25 C-14.635 99.735 -14.635 99.735 -13.625 101.25 C-17.82417078 100.72602614 -19.9141356 99.46546858 -23.0625 96.6875 C-26.64830297 93.74653484 -26.64830297 93.74653484 -31.1875 92.8125 C-32.3940625 93.0290625 -32.3940625 93.0290625 -33.625 93.25 C-33.625 92.26 -33.625 91.27 -33.625 90.25 C-31.3125 88.5 -31.3125 88.5 -28.625 87.25 C-25.625 88.25 -25.625 88.25 -23.625 89.25 C-22.635 88.755 -22.635 88.755 -21.625 88.25 C-22.615 87.59 -23.605 86.93 -24.625 86.25 C-23.13613281 86.34667969 -23.13613281 86.34667969 -21.6171875 86.4453125 C-16.17946144 86.47698596 -11.03260777 86.20531673 -6.67041016 82.66259766 C-1.99181054 77.68576061 1.66189896 71.95809848 5.375 66.25 C6.37056916 64.81202639 7.370373 63.3769726 8.375 61.9453125 C18.06586272 47.87873283 25.11004548 32.46817649 30.375 16.25 C31.035 16.58 31.695 16.91 32.375 17.25 C32.58205918 25.8774658 32.58962689 33.84628191 30.375 42.25 C31.035 42.25 31.695 42.25 32.375 42.25 C32.74625 41.0125 32.74625 41.0125 33.125 39.75 C34.56204811 35.72626529 36.39854515 32.03020976 38.375 28.25 C38.705 28.25 39.035 28.25 39.375 28.25 C38.91873261 33.99896911 38.01959137 38.90223932 35.99609375 44.3046875 C35.22292451 46.38596903 35.22292451 46.38596903 35.375 49.25 C37.355 46.28 39.335 43.31 41.375 40.25 C42.375 44.25 42.375 44.25 42.375 46.25 C43.035 43.28 43.695 40.31 44.375 37.25 C43.055 37.58 41.735 37.91 40.375 38.25 C40.375 33.96 40.375 29.67 40.375 25.25 C38.09158281 27.53341719 36.25102742 29.65929546 34.375 32.25 C34.32601562 31.29738281 34.27703125 30.34476563 34.2265625 29.36328125 C34.11441406 27.48189453 34.11441406 27.48189453 34 25.5625 C33.89558594 23.70044922 33.89558594 23.70044922 33.7890625 21.80078125 C33.40797738 18.53279659 32.87595277 16.16012066 31.375 13.25 C30.385 12.755 30.385 12.755 29.375 12.25 C29.148125 13.466875 28.92125 14.68375 28.6875 15.9375 C26.02372917 27.62547404 20.04394938 45.58105062 11.375 54.25 C9.93316328 54.15629573 8.49547034 53.99762057 7.0625 53.8125 C-9.58463739 52.03648961 -23.28753499 54.27714594 -36.72265625 64.91015625 C-44.11962298 71.78689675 -49.82954947 81.67373067 -50.89404297 91.8125 C-50.9898726 94.48579913 -50.98591482 97.13806534 -50.9375 99.8125 C-50.94072266 100.70646484 -50.94394531 101.60042969 -50.94726562 102.52148438 C-50.90249234 108.08558207 -50.18904709 112.90980735 -48.625 118.25 C-49.615 118.25 -50.605 118.25 -51.625 118.25 C-56.3362461 106.83644546 -56.38209168 93.42039305 -51.875 81.94921875 C-47.3323828 72.14000472 -40.85256804 61.98893556 -30.75 57.1875 C-26.25425501 54.40013811 -25.39997045 51.07705379 -23.625 46.25 C-22.79579476 44.31072968 -21.96224535 42.37331273 -21.125 40.4375 C-19.44349855 36.3977953 -17.9631379 32.35299377 -16.625 28.1875 C-15.02946773 23.25293045 -13.067358 18.62605649 -10.859375 13.9375 C-9.23280606 10.3961094 -7.82123763 6.7844863 -6.421875 3.1484375 C-4.96870203 -0.3135334 -3.60648693 0.06383163 0 0 Z " fill="#025D7C" transform="translate(103.625,9.75)"/>
<path d="M0 0 C0.99 0.495 0.99 0.495 2 1 C2.20705918 9.6274658 2.21462689 17.59628191 0 26 C0.66 26 1.32 26 2 26 C2.37125 24.7625 2.37125 24.7625 2.75 23.5 C4.18704811 19.47626529 6.02354515 15.78020976 8 12 C8.33 12 8.66 12 9 12 C8.54373261 17.74896911 7.64459137 22.65223932 5.62109375 28.0546875 C4.84792451 30.13596903 4.84792451 30.13596903 5 33 C6.98 30.03 8.96 27.06 11 24 C12.17744094 28.70976378 11.4890573 29.92699338 9.5625 34.25 C9.08941406 35.32765625 8.61632812 36.4053125 8.12890625 37.515625 C7.75636719 38.33546875 7.38382812 39.1553125 7 40 C8.65 39.34 10.3 38.68 12 38 C11.06489684 42.02094358 10.41990965 43.68142854 7.0703125 46.22265625 C3.48931148 49.08068423 2.54236915 52.41113202 1.5 56.75 C-0.31476885 63.40998119 -2.73618852 68.50751879 -7 74 C-5.11667969 74.18175781 -5.11667969 74.18175781 -3.1953125 74.3671875 C5.30439517 75.21045623 13.66080618 76.08608666 22 78 C22 78.66 22 79.32 22 80 C17.545 80.99 17.545 80.99 13 82 C15.64 82.99 18.28 83.98 21 85 C20.505 86.485 20.505 86.485 20 88 C15.06729471 89.6442351 12.45975807 88.18615592 8 86 C9.35304209 88.70608417 10.80966544 88.96183047 13.5625 90.125 C14.38878906 90.47820312 15.21507812 90.83140625 16.06640625 91.1953125 C16.70449219 91.46085937 17.34257812 91.72640625 18 92 C18 92.66 18 93.32 18 94 C12.32723489 94.29341888 9.00932754 94.00559652 4 91 C6.16687491 93.27521866 8.45620509 95.15794162 11 97 C10.34 97.66 9.68 98.32 9 99 C3.85725293 98.89940837 0.98543141 97.52675516 -3.03637695 94.40649414 C-13.42928606 86.45621538 -23.94473636 86.76304501 -36.6184082 87.27368164 C-39 87 -39 87 -40.82495117 85.48999023 C-41.40660034 84.75244507 -41.40660034 84.75244507 -42 84 C-40.02 84 -38.04 84 -36 84 C-36.33 82.35 -36.66 80.7 -37 79 C-35.68 79 -34.36 79 -33 79 C-33.66 77.35 -34.32 75.7 -35 74 C-33.515 73.505 -33.515 73.505 -32 73 C-32.99 72.01 -33.98 71.02 -35 70 C-35 70.66 -35 71.32 -35 72 C-37.97 72.99 -37.97 72.99 -41 74 C-39.35 74.66 -37.7 75.32 -36 76 C-37.98 76.99 -37.98 76.99 -40 78 C-40 78.99 -40 79.98 -40 81 C-42.97 81.495 -42.97 81.495 -46 82 C-45.34 82.99 -44.68 83.98 -44 85 C-48.19917078 84.47602614 -50.2891356 83.21546858 -53.4375 80.4375 C-57.02330297 77.49653484 -57.02330297 77.49653484 -61.5625 76.5625 C-62.7690625 76.7790625 -62.7690625 76.7790625 -64 77 C-64 76.01 -64 75.02 -64 74 C-61.6875 72.25 -61.6875 72.25 -59 71 C-56 72 -56 72 -54 73 C-53.01 72.505 -53.01 72.505 -52 72 C-52.99 71.34 -53.98 70.68 -55 70 C-53.51113281 70.09667969 -53.51113281 70.09667969 -51.9921875 70.1953125 C-46.55446144 70.22698596 -41.40760777 69.95531673 -37.04541016 66.41259766 C-32.36681054 61.43576061 -28.71310104 55.70809848 -25 50 C-24.00443084 48.56202639 -23.004627 47.1269726 -22 45.6953125 C-12.30913728 31.62873283 -5.26495452 16.21817649 0 0 Z " fill="#F4F9FA" transform="translate(134,26)"/>
<path d="M0 0 C13.76454807 -1.22611433 23.4535222 -1.0253639 34.4921875 7.8125 C35.31976563 8.534375 36.14734375 9.25625 37 10 C36.67 10.99 36.34 11.98 36 13 C35.34 13 34.68 13 34 13 C34 14.32 34 15.64 34 17 C33.01 17 32.02 17 31 17 C31.2475 18.1446875 31.2475 18.1446875 31.5 19.3125 C32 22 32 22 32 25 C29.9375 26.375 29.9375 26.375 27 28 C25.89578363 28.91660679 24.7916197 29.83327676 23.6875 30.75 C21.5744991 32.31278841 20.5299824 33.00195205 17.87890625 32.9921875 C16.82509766 32.81042969 16.82509766 32.81042969 15.75 32.625 C12.15785234 31.61863595 12.15785234 31.61863595 9.9375 33.1875 C8.78270405 34.99043465 8.78270405 34.99043465 9.3125 37.1875 C9.539375 37.785625 9.76625 38.38375 10 39 C7.04335481 40.4783226 4.25770263 40.06032783 1 40 C1 39.67 1 39.34 1 39 C3.475 38.505 3.475 38.505 6 38 C5.24074219 37.95101562 4.48148438 37.90203125 3.69921875 37.8515625 C2.70535156 37.77679688 1.71148437 37.70203125 0.6875 37.625 C-0.29863281 37.55539063 -1.28476563 37.48578125 -2.30078125 37.4140625 C-5 37 -5 37 -8 35 C-8.33 34.01 -8.66 33.02 -9 32 C-10.485 32.495 -10.485 32.495 -12 33 C-12.66 32.34 -13.32 31.68 -14 31 C-14.99 31 -15.98 31 -17 31 C-17 32.32 -17 33.64 -17 35 C-16.34 35.33 -15.68 35.66 -15 36 C-15 36.66 -15 37.32 -15 38 C-17.625 38.75 -17.625 38.75 -21 39 C-24.375 37.0625 -24.375 37.0625 -27 35 C-26.42655063 32.13275314 -26.1385485 31.1385485 -24 29 C-23.67 28.34 -23.34 27.68 -23 27 C-21.35 27 -19.7 27 -18 27 C-18 25.68 -18 24.36 -18 23 C-17.04480469 22.72027344 -16.08960937 22.44054687 -15.10546875 22.15234375 C-2.49029775 18.30489677 7.63425415 12.47464987 17 3 C17.33 2.34 17.66 1.68 18 1 C12.06 1 6.12 1 0 1 C0 0.67 0 0.34 0 0 Z " fill="#063B5F" transform="translate(98,113)"/>
<path d="M0 0 C2.33763966 0.3652562 4.61509061 0.90262753 6.90795898 1.48266602 C12.64290408 2.87262036 18.17548008 3.40577816 24.0625 3.625 C24.92810547 3.66367188 25.79371094 3.70234375 26.68554688 3.7421875 C28.79006359 3.83520481 30.8950009 3.91862669 33 4 C30.53103921 11.40688238 20.27067295 16.90253553 13.69921875 20.72265625 C9.48164453 22.71852712 5.09027026 23.943312 0.58984375 25.140625 C-0.26480469 25.42421875 -1.11945313 25.7078125 -2 26 C-2.33 26.66 -2.66 27.32 -3 28 C-4.65 27.67 -6.3 27.34 -8 27 C-8.33 28.32 -8.66 29.64 -9 31 C-10.98 30.67 -12.96 30.34 -15 30 C-15.495 31.485 -15.495 31.485 -16 33 C-17.32 32.34 -18.64 31.68 -20 31 C-21.32 32.32 -22.64 33.64 -24 35 C-24.33 33.68 -24.66 32.36 -25 31 C-28.16115776 32.36983503 -28.9927092 32.9890638 -31 36 C-31.66 36 -32.32 36 -33 36 C-32.125 31.25 -32.125 31.25 -31 29 C-32.0725 29.515625 -33.145 30.03125 -34.25 30.5625 C-36.71477612 31.63240282 -37.72132303 32.03572782 -40.4375 31.6875 C-40.953125 31.460625 -41.46875 31.23375 -42 31 C-41.01 29.35 -40.02 27.7 -39 26 C-42.63 26 -46.26 26 -50 26 C-50.33 25.34 -50.66 24.68 -51 24 C-49.87722656 23.81824219 -48.75445312 23.63648438 -47.59765625 23.44921875 C-29.21329633 20.40262072 -13.47738939 13.47738939 0 0 Z " fill="#F5F9FA" transform="translate(82,111)"/>
<path d="M0 0 C10.72507578 3.26829232 19.54966656 9.80226023 28 17 C26.75155549 19.9798208 25.50095018 22.95873033 24.25 25.9375 C23.90195313 26.76830078 23.55390625 27.59910156 23.1953125 28.45507812 C22.13716758 30.97307112 21.07099263 33.48744592 20 36 C19.640271 36.8470752 19.28054199 37.69415039 18.90991211 38.56689453 C18.5619458 39.3711084 18.21397949 40.17532227 17.85546875 41.00390625 C17.54504639 41.72521729 17.23462402 42.44652832 16.91479492 43.18969727 C15.68071845 45.63183152 14.45960941 46.80746211 12 48 C9.525 48.495 9.525 48.495 7 49 C7.99 45.7 8.98 42.4 10 39 C10.66 39 11.32 39 12 39 C12.66 36.03 13.32 33.06 14 30 C12.68 30.33 11.36 30.66 10 31 C10 26.71 10 22.42 10 18 C7.71658281 20.28341719 5.87602742 22.40929546 4 25 C3.95101562 24.04738281 3.90203125 23.09476563 3.8515625 22.11328125 C3.77679688 20.85902344 3.70203125 19.60476562 3.625 18.3125 C3.52058594 16.45044922 3.52058594 16.45044922 3.4140625 14.55078125 C3.03301345 11.28310594 2.51675222 8.90349711 1 6 C-1.04105639 5.11306697 -1.04105639 5.11306697 -3 5 C-3 3 -3 3 -1.5 1.375 C-1.005 0.92125 -0.51 0.4675 0 0 Z " fill="#02607D" transform="translate(134,17)"/>
<path d="M0 0 C0.495 0.99 0.495 0.99 1 2 C-2.57899418 12.69584468 -11.33395231 22.34182574 -21 28 C-34.08230249 34.28497039 -47.84549132 36.39768466 -62 32.375 C-67.4798903 30.44051611 -72.66999521 27.94114513 -77 24 C-77.33 23.01 -77.66 22.02 -78 21 C-75.29055416 22.0063656 -72.97576908 23.01615395 -70.5625 24.625 C-67.5038848 26.26620816 -65.42112846 26.23868338 -62 26 C-62 25.34 -62 24.68 -62 24 C-62.99 23.67 -63.98 23.34 -65 23 C-64.67 21.68 -64.34 20.36 -64 19 C-62.125 18.375 -62.125 18.375 -60 18 C-59.34 18.66 -58.68 19.32 -58 20 C-57.01 19.67 -56.02 19.34 -55 19 C-54.87625 19.639375 -54.7525 20.27875 -54.625 20.9375 C-54.41875 21.618125 -54.2125 22.29875 -54 23 C-51.29816945 24.35091528 -48.88191794 24.33858058 -45.875 24.5625 C-44.23144531 24.68818359 -44.23144531 24.68818359 -42.5546875 24.81640625 C-41.29011719 24.90728516 -41.29011719 24.90728516 -40 25 C-40.33 25.66 -40.66 26.32 -41 27 C-39.68 27 -38.36 27 -37 27 C-37.66 25.35 -38.32 23.7 -39 22 C-37.5 20.4375 -37.5 20.4375 -35 19 C-33.7625 19.226875 -32.525 19.45375 -31.25 19.6875 C-28.42763441 20.19921862 -27.35216672 20.19648517 -24.80859375 18.77734375 C-23.43012614 17.70350986 -22.07856507 16.59388028 -20.76171875 15.4453125 C-19 14 -19 14 -16 13 C-16 13.66 -16 14.32 -16 15 C-18.046875 16.62109375 -18.046875 16.62109375 -20.75 18.4375 C-23.88882848 20.56217483 -26.98767948 22.69853082 -30 25 C-29.67 25.33 -29.34 25.66 -29 26 C-22.03403654 26 -17.93899076 22.67674346 -13 18 C-8.24585007 12.77884124 -5.04962707 7.32515244 -2 1 C-1.34 0.67 -0.68 0.34 0 0 Z " fill="#1D4863" transform="translate(145,125)"/>
<path d="M0 0 C0.99 0 1.98 0 3 0 C2.02280896 5.27683162 0.98377811 9.45946809 -2 14 C-3.10998875 16.72183413 -3.08142984 17.77254619 -2.07421875 20.5859375 C-1.61660156 21.50632812 -1.15898437 22.42671875 -0.6875 23.375 C0.81681884 26.47042531 2.07593322 29.25459962 3.0625 32.5625 C3.76134336 35.15438282 3.76134336 35.15438282 6.05859375 36.15234375 C6.69925781 36.43207031 7.33992188 36.71179688 8 37 C-0.82641419 36.54736337 -9.33829426 35.85479354 -18 34 C-16.89186364 31.09727112 -15.7813664 28.65018625 -14.125 26 C-12.09134315 22.60558746 -11.15702571 19.18489491 -10.125 15.375 C-8.44507647 9.55526493 -6.94899908 7.33519503 -2 4 C-0.62745412 1.85019503 -0.62745412 1.85019503 0 0 Z " fill="#0C3E5F" transform="translate(145,66)"/>
<path d="M0 0 C3 1 3 1 4.1484375 3.16796875 C5.08049075 6.26768713 5.41221184 9.08521293 5.625 12.3125 C5.69976562 13.38113281 5.77453125 14.44976562 5.8515625 15.55078125 C5.90054688 16.35902344 5.94953125 17.16726562 6 18 C6.45375 17.175 6.9075 16.35 7.375 15.5 C7.91125 14.675 8.4475 13.85 9 13 C9.66 13 10.32 13 11 13 C11.495 18.94 11.495 18.94 12 25 C12.99 25 13.98 25 15 25 C15.36923077 31.52307692 15.36923077 31.52307692 13.5 33.9375 C13.005 34.288125 12.51 34.63875 12 35 C12 33.02 12 31.04 12 29 C10.02 31.97 8.04 34.94 6 38 C4.87337522 33.49350088 5.36618237 32.23250541 6.9375 28 C8.30936928 24.27967653 9 22.0186559 9 18 C7.02 21.96 5.04 25.92 3 30 C2.34 30 1.68 30 1 30 C1.0721875 29.45214844 1.144375 28.90429688 1.21875 28.33984375 C2.13188961 20.54010957 2.09410386 12.84198809 2 5 C1.76925781 5.58265625 1.53851563 6.1653125 1.30078125 6.765625 C0.60144257 8.52364634 -0.10209958 10.27999825 -0.80859375 12.03515625 C-1.58050858 13.95608528 -2.34407755 15.8803977 -3.09765625 17.80859375 C-7.47577944 28.74648117 -12.7248158 39.67867024 -20 49 C-21.5 47.75 -21.5 47.75 -23 46 C-23 44.68 -23 43.36 -23 42 C-22.23486084 41.92773193 -21.46972168 41.85546387 -20.68139648 41.78100586 C-17.89368262 41.24499976 -17.89368262 41.24499976 -16.42602539 39.06079102 C-15.98766357 38.21701904 -15.54930176 37.37324707 -15.09765625 36.50390625 C-14.60233398 35.56039307 -14.10701172 34.61687988 -13.59667969 33.64477539 C-12.83726074 32.11904907 -12.83726074 32.11904907 -12.0625 30.5625 C-11.53688477 29.53310303 -11.01126953 28.50370605 -10.46972656 27.44311523 C-6.04347673 18.55837227 -2.71363356 9.53342316 0 0 Z " fill="#0E4260" transform="translate(133,22)"/>
<path d="M0 0 C0 0.66 0 1.32 0 2 C-0.58265625 1.9278125 -1.1653125 1.855625 -1.765625 1.78125 C-19.30346561 -0.20416592 -33.82924779 1.36765421 -48.09765625 12.66015625 C-55.49462298 19.53689675 -61.20454947 29.42373067 -62.26904297 39.5625 C-62.3648726 42.23579913 -62.36091482 44.88806534 -62.3125 47.5625 C-62.31572266 48.45646484 -62.31894531 49.35042969 -62.32226562 50.27148438 C-62.27749234 55.83558207 -61.56404709 60.65980735 -60 66 C-60.99 66 -61.98 66 -63 66 C-67.7112461 54.58644546 -67.75709168 41.17039305 -63.25 29.69921875 C-55.98449072 14.01025964 -45.58067262 5.51637522 -29.85546875 -0.87109375 C-20.50815496 -3.82394887 -9.27141313 -2.60250193 0 0 Z " fill="#D4E8F0" transform="translate(115,62)"/>
<path d="M0 0 C0.99 0.66 1.98 1.32 3 2 C2.67 3.98 2.34 5.96 2 8 C3.32 7.67 4.64 7.34 6 7 C3.70617833 15.55771931 -3.02000642 22.24257298 -10.1875 27.25 C-14.10578484 29.47647957 -16.72451592 29.15794361 -21 28 C-17.07168569 23.82616605 -12.83520017 20.10605574 -8 17 C-7.34 17 -6.68 17 -6 17 C-6 13.7 -6 10.4 -6 7 C-5.01 7 -4.02 7 -3 7 C-3 5.68 -3 4.36 -3 3 C-1.5 1.25 -1.5 1.25 0 0 Z " fill="#0F3F5D" transform="translate(135,123)"/>
<path d="M0 0 C0.495 0.99 0.495 0.99 1 2 C-2.57899418 12.69584468 -11.33395231 22.34182574 -21 28 C-34.08230249 34.28497039 -47.84549132 36.39768466 -62 32.375 C-67.4798903 30.44051611 -72.66999521 27.94114513 -77 24 C-77.33 23.01 -77.66 22.02 -78 21 C-74.69668071 22.17214555 -71.76863208 23.6823584 -68.75 25.4375 C-57.88973899 31.43548729 -46.81422274 32.71189528 -34.62109375 30.34375 C-22.53003348 26.68648014 -11.67375205 19.42944566 -5.46875 8.23828125 C-4.61470745 6.4979213 -3.79058637 4.74230758 -3.0078125 2.96875 C-2 1 -2 1 0 0 Z " fill="#DAF0F6" transform="translate(145,125)"/>
<path d="M0 0 C1.32 0.66 2.64 1.32 4 2 C4 2.66 4 3.32 4 4 C3.34 4.66 2.68 5.32 2 6 C2.3185177 8.10820797 2.3185177 8.10820797 3 10 C1.68 10 0.36 10 -1 10 C-0.67 11.65 -0.34 13.3 0 15 C-1.65 15.33 -3.3 15.66 -5 16 C-0.31113215 18.34920874 4.1774349 18.43045925 9.3125 18.625 C10.14845703 18.66367188 10.98441406 18.70234375 11.84570312 18.7421875 C13.89679259 18.83595159 15.94836515 18.91904245 18 19 C17.67 19.66 17.34 20.32 17 21 C14.02016976 20.88480819 11.04154208 20.75809198 8.0625 20.625 C7.23169922 20.5940625 6.40089844 20.563125 5.54492188 20.53125 C-1.66702102 20.19450558 -8.56031182 19.444967 -15 16 C-14.67 15.01 -14.34 14.02 -14 13 C-11.525 13.99 -11.525 13.99 -9 15 C-9.66 14.01 -10.32 13.02 -11 12 C-9.02 11.67 -7.04 11.34 -5 11 C-5.99 10.34 -6.98 9.68 -8 9 C-5.69 8.34 -3.38 7.68 -1 7 C-2.98 6.34 -4.96 5.68 -7 5 C-7 4.67 -7 4.34 -7 4 C-4.36 3.67 -1.72 3.34 1 3 C0.67 2.01 0.34 1.02 0 0 Z " fill="#35576E" transform="translate(98,95)"/>
<path d="M0 0 C2.475 0.495 2.475 0.495 5 1 C5.25 4.25 5.25 4.25 5 8 C3.70520443 9.37078809 2.36349269 10.69752419 1 12 C-0.55700188 14.12873519 -2.07078564 16.26451134 -3.5625 18.4375 C-8.61570878 25.67203302 -14.19768214 32.35932443 -20 39 C-20.33 38.34 -20.66 37.68 -21 37 C-20.53851563 36.44054687 -20.07703125 35.88109375 -19.6015625 35.3046875 C-13.73607322 28.0945406 -8.34327418 20.59883664 -3 13 C-3.66 13 -4.32 13 -5 13 C-4.39254603 8.14036821 -2.27241033 4.2594482 0 0 Z " fill="#EEF4F7" transform="translate(123,53)"/>
<path d="M0 0 C0 0.66 0 1.32 0 2 C-0.58265625 1.9278125 -1.1653125 1.855625 -1.765625 1.78125 C-18.37648896 -0.09922517 -31.99379448 1.10496848 -46 11 C-48.51642981 13.192828 -50.8195686 15.47407771 -53 18 C-53.33 17.01 -53.66 16.02 -54 15 C-40.57330017 -1.05366284 -19.76168862 -5.54714066 0 0 Z " fill="#DEF3F7" transform="translate(115,62)"/>
<path d="M0 0 C0.33 0 0.66 0 1 0 C0.47458553 7.7498635 -1.55591476 14.6450086 -4 22 C-4.66 21.67 -5.32 21.34 -6 21 C-6.12117187 22.07121094 -6.24234375 23.14242187 -6.3671875 24.24609375 C-6.53597601 25.64328752 -6.70527313 27.04041991 -6.875 28.4375 C-6.95363281 29.14455078 -7.03226563 29.85160156 -7.11328125 30.58007812 C-7.33927676 32.39673432 -7.66300727 34.20062522 -8 36 C-8.99 36.495 -8.99 36.495 -10 37 C-9.97679687 36.16855469 -9.95359375 35.33710937 -9.9296875 34.48046875 C-9.91164062 33.39378906 -9.89359375 32.30710938 -9.875 31.1875 C-9.85179687 30.10855469 -9.82859375 29.02960938 -9.8046875 27.91796875 C-9.76976283 24.80597132 -9.76976283 24.80597132 -12 22 C-11.8125 19.875 -11.8125 19.875 -11 18 C-10.01 17.67 -9.02 17.34 -8 17 C-8 16.34 -8 15.68 -8 15 C-7.34 15 -6.68 15 -6 15 C-5.88785156 14.28457031 -5.77570313 13.56914063 -5.66015625 12.83203125 C-4.95543995 9.80884002 -3.86712202 7.43677312 -2.4375 4.6875 C-1.98246094 3.80449219 -1.52742187 2.92148437 -1.05859375 2.01171875 C-0.70925781 1.34785156 -0.35992187 0.68398438 0 0 Z " fill="#B8C6CD" transform="translate(142,38)"/>
<path d="M0 0 C0.33 0.99 0.66 1.98 1 3 C-0.65 3.33 -2.3 3.66 -4 4 C-4.33 4.99 -4.66 5.98 -5 7 C-5.66 7 -6.32 7 -7 7 C-7.66 8.32 -8.32 9.64 -9 11 C-9.99 10.34 -10.98 9.68 -12 9 C-15.12498166 8.6626154 -15.12498166 8.6626154 -17.1875 11 C-17.785625 11.66 -18.38375 12.32 -19 13 C-19 12.01 -19 11.02 -19 10 C-21.99383194 10.7195905 -21.99383194 10.7195905 -23.4375 12.625 C-23.953125 13.07875 -24.46875 13.5325 -25 14 C-27.1875 13.6875 -27.1875 13.6875 -29 13 C-28.2575 12.1028125 -28.2575 12.1028125 -27.5 11.1875 C-25.71723582 9.02970006 -25.71723582 9.02970006 -26 6 C-24.68 5.67 -23.36 5.34 -22 5 C-21.01 6.485 -21.01 6.485 -20 8 C-18.68 6.68 -17.36 5.36 -16 4 C-15.01 4.66 -14.02 5.32 -13 6 C-12.67 5.34 -12.34 4.68 -12 4 C-9.03 4.495 -9.03 4.495 -6 5 C-5.67 3.68 -5.34 2.36 -5 1 C-2.525 1.495 -2.525 1.495 0 2 C0 1.34 0 0.68 0 0 Z " fill="#134868" transform="translate(79,137)"/>
<path d="M0 0 C0.33 0.66 0.66 1.32 1 2 C1.66 2 2.32 2 3 2 C1.59002684 6.16242076 -0.41136752 8.97662407 -3.25 12.3125 C-6.57169162 16.27071546 -9.763049 20.26788197 -12.80859375 24.44140625 C-14 26 -14 26 -16 28 C-18.125 27.625 -18.125 27.625 -20 27 C-19.45472656 26.35675781 -18.90945312 25.71351562 -18.34765625 25.05078125 C-11.66296906 17.04058344 -5.78589528 8.67884292 0 0 Z " fill="#E0EFF4" transform="translate(117,64)"/>
<path d="M0 0 C0.66 0 1.32 0 2 0 C2 0.66 2 1.32 2 2 C-0.046875 3.62109375 -0.046875 3.62109375 -2.75 5.4375 C-5.88882848 7.56217483 -8.98767948 9.69853082 -12 12 C-10.68 12.99 -9.36 13.98 -8 15 C-12.95 16.485 -12.95 16.485 -18 18 C-18.99 15.03 -19.98 12.06 -21 9 C-19.5 7.4375 -19.5 7.4375 -17 6 C-15.14375 6.3403125 -15.14375 6.3403125 -13.25 6.6875 C-10.40581694 7.2051093 -9.32210068 7.17412351 -6.73828125 5.77734375 C-4.36246008 3.97308459 -2.11011876 2.11011876 0 0 Z " fill="#56819B" transform="translate(127,138)"/>
<path d="M0 0 C0.66 1.32 1.32 2.64 2 4 C5.3 4 8.6 4 12 4 C12 4.66 12 5.32 12 6 C10.06524329 6.53093324 8.12706845 7.04942317 6.1875 7.5625 C4.56908203 7.99755859 4.56908203 7.99755859 2.91796875 8.44140625 C0 9 0 9 -3 8 C-3.6875 5.9375 -3.6875 5.9375 -4 4 C-4.99 4.33 -5.98 4.66 -7 5 C-7 5.66 -7 6.32 -7 7 C-6.34 7.33 -5.68 7.66 -5 8 C-4.375 10.5625 -4.375 10.5625 -4 13 C-4.99 13 -5.98 13 -7 13 C-7 13.66 -7 14.32 -7 15 C-9.475 14.01 -9.475 14.01 -12 13 C-11.67 11.35 -11.34 9.7 -11 8 C-10.34 8 -9.68 8 -9 8 C-8.95875 7.236875 -8.9175 6.47375 -8.875 5.6875 C-8 3 -8 3 -5.0625 1.1875 C-2 0 -2 0 0 0 Z " fill="#4D7793" transform="translate(83,65)"/>
<path d="M0 0 C1.18916016 0.01353516 1.18916016 0.01353516 2.40234375 0.02734375 C4.35169281 0.05082988 6.30088575 0.08669863 8.25 0.125 C8.25 1.445 8.25 2.765 8.25 4.125 C5.58333333 4.125 2.91666667 4.125 0.25 4.125 C-0.08 5.115 -0.41 6.105 -0.75 7.125 C-4.05 7.125 -7.35 7.125 -10.75 7.125 C-11.41 5.475 -12.07 3.825 -12.75 2.125 C-8.77389214 -0.58986934 -4.61098023 -0.09940753 0 0 Z " fill="#0C3D5E" transform="translate(95.75,62.875)"/>
<path d="M0 0 C0.99 0 1.98 0 3 0 C2.02280896 5.27683162 0.98377811 9.45946809 -2 14 C-3.12242797 16.73777404 -3.08737792 17.76486103 -2.0390625 20.5859375 C-1.57242188 21.50632812 -1.10578125 22.42671875 -0.625 23.375 C1.26386874 27.28354557 2.64462759 30.61707355 3 35 C2.01 34.67 1.02 34.34 0 34 C-1.0625 31.671875 -1.0625 31.671875 -2 28.75 C-2.99593773 25.67919201 -3.90927319 23.14287857 -5.64453125 20.41015625 C-7.77026031 16.6304017 -6.77632652 14.16393314 -6 10 C-5.34 10 -4.68 10 -4 10 C-4 9.34 -4 8.68 -4 8 C-3.525625 7.566875 -3.05125 7.13375 -2.5625 6.6875 C-0.58616914 4.55306267 -0.38336764 2.83692053 0 0 Z " fill="#0C5373" transform="translate(145,66)"/>
<path d="M0 0 C0.66 0 1.32 0 2 0 C2.66 1.65 3.32 3.3 4 5 C4.99 5 5.98 5 7 5 C7 5.66 7 6.32 7 7 C6.01 7 5.02 7 4 7 C5.35304209 9.70608417 6.80966544 9.96183047 9.5625 11.125 C10.38878906 11.47820312 11.21507812 11.83140625 12.06640625 12.1953125 C12.70449219 12.46085937 13.34257812 12.72640625 14 13 C14 13.66 14 14.32 14 15 C7.76697964 15.55651967 4.80370909 14.75992156 -0.140625 10.8984375 C-0.75421875 10.60195312 -1.3678125 10.30546875 -2 10 C-4.22832991 10.75928487 -4.22832991 10.75928487 -6 12 C-5.65066406 11.46890625 -5.30132812 10.9378125 -4.94140625 10.390625 C-4.48636719 9.68421875 -4.03132812 8.9778125 -3.5625 8.25 C-2.88380859 7.20585938 -2.88380859 7.20585938 -2.19140625 6.140625 C-1.0391991 4.07042986 -0.45323018 2.31303676 0 0 Z " fill="#C1CDD2" transform="translate(138,105)"/>
<path d="M0 0 C0 0.66 0 1.32 0 2 C-1.88681265 3.53674364 -3.77089083 4.96661069 -5.75 6.375 C-10.16030735 9.55124196 -10.16030735 9.55124196 -14.15625 13.2109375 C-16.76289781 15.74026949 -19.52169405 16.19731401 -23 17 C-23.33 15.35 -23.66 13.7 -24 12 C-20.7 9.69 -17.4 7.38 -14 5 C-13.34 5.33 -12.68 5.66 -12 6 C-12 6.66 -12 7.32 -12 8 C-11.30132812 7.4225 -10.60265625 6.845 -9.8828125 6.25 C-8.51769531 5.13625 -8.51769531 5.13625 -7.125 4 C-6.22007813 3.2575 -5.31515625 2.515 -4.3828125 1.75 C-2 0 -2 0 0 0 Z " fill="#9CAEB8" transform="translate(84,115)"/>
<path d="M0 0 C8.67509901 2.491376 15.98294684 8.36049306 22 15 C21.01 15.495 21.01 15.495 20 16 C19.67 15.34 19.34 14.68 19 14 C18.01 13.67 17.02 13.34 16 13 C16 12.34 16 11.68 16 11 C14.35 11 12.7 11 11 11 C11 10.34 11 9.68 11 9 C6.545 9.495 6.545 9.495 2 10 C2 8.35 2 6.7 2 5 C1.34 5 0.68 5 0 5 C0 3.35 0 1.7 0 0 Z " fill="#0C657E" transform="translate(140,20)"/>
<path d="M0 0 C0.66 0.66 1.32 1.32 2 2 C2.99 1.67 3.98 1.34 5 1 C4.63200192 7.13330136 3.39179148 9.90099462 -1 14 C-4.3125 14.875 -4.3125 14.875 -7 15 C-6.01 11.7 -5.02 8.4 -4 5 C-3.34 5 -2.68 5 -2 5 C-1.34 3.35 -0.68 1.7 0 0 Z " fill="#035A78" transform="translate(148,51)"/>
<path d="M0 0 C1.4606285 2.64738916 2 3.89448334 2 7 C3.32 6.34 4.64 5.68 6 5 C4.88096454 6.81618856 3.75458716 8.62785526 2.625 10.4375 C1.68527344 11.95150391 1.68527344 11.95150391 0.7265625 13.49609375 C-1 16 -1 16 -3 17 C-3.33 14.36 -3.66 11.72 -4 9 C-4.45375 9.825 -4.9075 10.65 -5.375 11.5 C-5.91125 12.325 -6.4475 13.15 -7 14 C-7.66 14 -8.32 14 -9 14 C-7.34966761 8.71893635 -3.90667286 3.90667286 0 0 Z " fill="#3E6884" transform="translate(65,76)"/>
<path d="M0 0 C0.99 0.66 1.98 1.32 3 2 C3.99 1.67 4.98 1.34 6 1 C6.12375 1.639375 6.2475 2.27875 6.375 2.9375 C6.58125 3.618125 6.7875 4.29875 7 5 C9.70183055 6.35091528 12.11808206 6.33858058 15.125 6.5625 C16.76855469 6.68818359 16.76855469 6.68818359 18.4453125 6.81640625 C19.28835937 6.87699219 20.13140625 6.93757812 21 7 C21 7.33 21 7.66 21 8 C18.58343806 8.16831775 16.16676951 8.33471262 13.75 8.5 C13.06808594 8.54769531 12.38617188 8.59539062 11.68359375 8.64453125 C2.75415827 9.25138609 2.75415827 9.25138609 -1 8 C-1 7.34 -1 6.68 -1 6 C-1.99 5.67 -2.98 5.34 -4 5 C-3.6875 3.0625 -3.6875 3.0625 -3 1 C-2.01 0.67 -1.02 0.34 0 0 Z " fill="#527F97" transform="translate(84,143)"/>
<path d="M0 0 C1.91635217 -0.05423638 3.83314925 -0.09289963 5.75 -0.125 C7.35101563 -0.15980469 7.35101563 -0.15980469 8.984375 -0.1953125 C11.92470106 -0.00487687 13.52361878 0.47329896 16 2 C14.68 2 13.36 2 12 2 C12.33 4.31 12.66 6.62 13 9 C10.64561267 10.42944945 9.51967567 11.08661261 6.75 10.625 C6.1725 10.41875 5.595 10.2125 5 10 C4.67 8.35 4.34 6.7 4 5 C4.99 5 5.98 5 7 5 C7.33 4.34 7.66 3.68 8 3 C8.66 3 9.32 3 10 3 C10.33 2.34 10.66 1.68 11 1 C7.37 1 3.74 1 0 1 C0 0.67 0 0.34 0 0 Z " fill="#26536C" transform="translate(93,62)"/>
<path d="M0 0 C0.99 0.66 1.98 1.32 3 2 C2.45660208 6.56454251 1.20536179 9.9728176 -1 14 C-3.475 13.01 -3.475 13.01 -6 12 C-6 10.35 -6 8.7 -6 7 C-5.01 7 -4.02 7 -3 7 C-3 5.68 -3 4.36 -3 3 C-1.5 1.25 -1.5 1.25 0 0 Z " fill="#0F4164" transform="translate(135,123)"/>
<path d="M0 0 C0.66 0.33 1.32 0.66 2 1 C3.67654729 0.72057545 5.34608154 0.39171753 7 0 C7.36923077 6.52307692 7.36923077 6.52307692 5.5 8.9375 C5.005 9.288125 4.51 9.63875 4 10 C4 8.02 4 6.04 4 4 C2.02 6.97 0.04 9.94 -2 13 C-3.03103689 8.87585243 -2.94701684 8.0158858 -1.5625 4.25 C-1.27503906 3.45078125 -0.98757812 2.6515625 -0.69140625 1.828125 C-0.46324219 1.22484375 -0.23507813 0.6215625 0 0 Z " fill="#184964" transform="translate(141,47)"/>
<path d="M0 0 C2.9375 1.4375 2.9375 1.4375 4.3125 4.0625 C4.51875 4.84625 4.725 5.63 4.9375 6.4375 C1.56652617 7.93571059 -0.26692119 8.4375 -4.0625 8.4375 C-4.7225 6.1275 -5.3825 3.8175 -6.0625 1.4375 C-3.0625 -0.5625 -3.0625 -0.5625 0 0 Z " fill="#0F3F5E" transform="translate(62.0625,95.5625)"/>
<path d="M0 0 C0.66 0.33 1.32 0.66 2 1 C-4.52940951 10.44710661 -11.44377105 19.35199653 -19 28 C-19.33 27.34 -19.66 26.68 -20 26 C-19.56171875 25.46375 -19.1234375 24.9275 -18.671875 24.375 C-12.22898842 16.41305886 -6.1151443 8.21467717 0 0 Z " fill="#385667" transform="translate(122,64)"/>
<path d="M0 0 C1.32 0.66 2.64 1.32 4 2 C4 2.66 4 3.32 4 4 C3.34 4.66 2.68 5.32 2 6 C2.3185177 8.10820797 2.3185177 8.10820797 3 10 C-4.625 11.25 -4.625 11.25 -8 9 C-5.69 8.34 -3.38 7.68 -1 7 C-2.98 6.34 -4.96 5.68 -7 5 C-7 4.67 -7 4.34 -7 4 C-4.36 3.67 -1.72 3.34 1 3 C0.67 2.01 0.34 1.02 0 0 Z " fill="#315369" transform="translate(98,95)"/>
<path d="M0 0 C0.91963994 3.46173409 1.38300408 6.39976163 1 10 C-0.32781878 11.0073108 -1.66209359 12.00612666 -3 13 C-4.23662711 15.59226019 -5.14147127 18.26181367 -6 21 C-6.66 21 -7.32 21 -8 21 C-6.22962267 13.4291181 -3.74139138 6.81731788 0 0 Z " fill="#0D3D5C" transform="translate(21,56)"/>
<path d="M0 0 C5.84193892 5.30632405 9.36112753 13.12057282 10 21 C9.01 20.67 8.02 20.34 7 20 C5.9375 17.671875 5.9375 17.671875 5 14.75 C4.00663878 11.68713623 3.08145466 9.13079738 1.375 6.390625 C0 4 0 4 0 0 Z " fill="#D2E9F2" transform="translate(138,80)"/>
<path d="M0 0 C0.70125 0.268125 1.4025 0.53625 2.125 0.8125 C1.5475 0.85375 0.97 0.895 0.375 0.9375 C-2.16518176 1.67550498 -2.16518176 1.67550498 -3.6875 4.5625 C-6.33836447 8.50092721 -8.92929294 10.23261461 -12.875 12.8125 C-13.205 11.8225 -13.535 10.8325 -13.875 9.8125 C-12.22957499 8.11868014 -10.56854355 6.45727659 -8.875 4.8125 C-8.13636719 4.07966797 -8.13636719 4.07966797 -7.3828125 3.33203125 C-3.5311149 -0.2302901 -3.5311149 -0.2302901 0 0 Z " fill="#D7EAF1" transform="translate(84.875,111.1875)"/>
<path d="M0 0 C0.33 0 0.66 0 1 0 C1.04898438 1.0621875 1.09796875 2.124375 1.1484375 3.21875 C1.68360215 13.74501287 1.68360215 13.74501287 4 24 C3.01 24 2.02 24 1 24 C0.46658816 22.42085985 -0.05125763 20.83645613 -0.5625 19.25 C-0.99755859 17.92742187 -0.99755859 17.92742187 -1.44140625 16.578125 C-2.038852 13.82068307 -1.82515346 12.64049107 -1 10 C-0.7856066 8.25309081 -0.59892347 6.5025977 -0.4375 4.75 C-0.35371094 3.85796875 -0.26992188 2.9659375 -0.18359375 2.046875 C-0.12300781 1.37140625 -0.06242187 0.6959375 0 0 Z " fill="#9EB5C4" transform="translate(51,104)"/>
<path d="M0 0 C1.4606285 2.64738916 2 3.89448334 2 7 C1.67 7.66 1.34 8.32 1 9 C0.34 9 -0.32 9 -1 9 C-1 9.66 -1 10.32 -1 11 C-0.34 11.66 0.32 12.32 1 13 C-1.31 12.67 -3.62 12.34 -6 12 C-4.43358249 7.69235185 -2.31663844 3.93828536 0 0 Z " fill="#0F4163" transform="translate(133,88)"/>
<path d="M0 0 C2.64 1.65 5.28 3.3 8 5 C7.01 6.485 7.01 6.485 6 8 C-0.75 7.25 -0.75 7.25 -3 5 C-2.01 3.35 -1.02 1.7 0 0 Z " fill="#E2EDF2" transform="translate(137,117)"/>
<path d="M0 0 C0 2.62113708 -0.31292445 4.50935112 -1 7 C-4.64717645 7 -7.54956883 6.15014372 -11 5 C-11.33 4.34 -11.66 3.68 -12 3 C-10.82630859 2.80083984 -10.82630859 2.80083984 -9.62890625 2.59765625 C-8.61699219 2.42105469 -7.60507813 2.24445313 -6.5625 2.0625 C-5.55316406 1.88847656 -4.54382813 1.71445313 -3.50390625 1.53515625 C-1.0712562 1.25248903 -1.0712562 1.25248903 0 0 Z " fill="#0E3E5F" transform="translate(158,104)"/>
<path d="M0 0 C1.84765625 0.33984375 1.84765625 0.33984375 4.0625 0.9375 C5.16271484 1.22947266 5.16271484 1.22947266 6.28515625 1.52734375 C7.13400391 1.76130859 7.13400391 1.76130859 8 2 C8.33 1.34 8.66 0.68 9 0 C10.32 0.66 11.64 1.32 13 2 C13 2.33 13 2.66 13 3 C11.02 3.33 9.04 3.66 7 4 C7.99 5.485 7.99 5.485 9 7 C4.16743695 6.58578031 2.17320782 4.53586014 -1 1 C-0.67 0.67 -0.34 0.34 0 0 Z " fill="#DBEEF3" transform="translate(81,104)"/>
<path d="M0 0 C0.33 0.99 0.66 1.98 1 3 C-0.65 3.33 -2.3 3.66 -4 4 C-4.33 4.99 -4.66 5.98 -5 7 C-5.66 7 -6.32 7 -7 7 C-7.66 8.32 -8.32 9.64 -9 11 C-9 9.68 -9 8.36 -9 7 C-9.99 7 -10.98 7 -12 7 C-12 6.01 -12 5.02 -12 4 C-9.03 4.495 -9.03 4.495 -6 5 C-5.67 3.68 -5.34 2.36 -5 1 C-3.35 1.33 -1.7 1.66 0 2 C0 1.34 0 0.68 0 0 Z " fill="#16405C" transform="translate(79,137)"/>
<path d="M0 0 C0 0.99 0 1.98 0 3 C0.66 3.33 1.32 3.66 2 4 C2.625 6.0625 2.625 6.0625 3 8 C-0.67420866 7.69381595 -1.78135513 7.24228216 -4.3125 4.4375 C-4.869375 3.633125 -5.42625 2.82875 -6 2 C-3 0 -3 0 0 0 Z " fill="#12496A" transform="translate(40,159)"/>
<path d="M0 0 C0.33 0.66 0.66 1.32 1 2 C0.109375 4.27734375 0.109375 4.27734375 -1.25 6.9375 C-1.90742188 8.25041016 -1.90742188 8.25041016 -2.578125 9.58984375 C-3.87297665 11.78468845 -5.10963121 13.31534782 -7 15 C-7.66 14.34 -8.32 13.68 -9 13 C-8.66226563 12.46890625 -8.32453125 11.9378125 -7.9765625 11.390625 C-7.53054687 10.68421875 -7.08453125 9.9778125 -6.625 9.25 C-6.18414062 8.55390625 -5.74328125 7.8578125 -5.2890625 7.140625 C-3.96821829 5.02888843 -3.96821829 5.02888843 -2.9609375 2.796875 C-2 1 -2 1 0 0 Z " fill="#CEE5EE" transform="translate(145,125)"/>
<path d="M0 0 C0.66 0.99 1.32 1.98 2 3 C-1.4019487 5.09350689 -4.05272412 5.17942163 -8 5 C-8 4.01 -8 3.02 -8 2 C-3.71900826 -1.23966942 -3.71900826 -1.23966942 0 0 Z " fill="#E1F0F6" transform="translate(78,98)"/>
<path d="M0 0 C1.32 0.33 2.64 0.66 4 1 C3.04270084 2.12588014 2.08412105 3.2506715 1.125 4.375 C0.59132813 5.00148438 0.05765625 5.62796875 -0.4921875 6.2734375 C-1.61432007 7.55836651 -2.79371975 8.79371975 -4 10 C-4.99 9.67 -5.98 9.34 -7 9 C-4.69 6.03 -2.38 3.06 0 0 Z " fill="#144260" transform="translate(34,38)"/>
<path d="M0 0 C1.32 0 2.64 0 4 0 C4 0.66 4 1.32 4 2 C5.32 1.34 6.64 0.68 8 0 C8 0.66 8 1.32 8 2 C9.98 2 11.96 2 14 2 C13.67 2.66 13.34 3.32 13 4 C3.58997722 4.3690205 3.58997722 4.3690205 -1 2 C-0.67 1.34 -0.34 0.68 0 0 Z " fill="#02395D" transform="translate(83,151)"/>
<path d="M0 0 C0.33 0.99 0.66 1.98 1 3 C1.66 3.33 2.32 3.66 3 4 C2.01 5.32 1.02 6.64 0 8 C-2 6.75 -2 6.75 -4 5 C-4 3.68 -4 2.36 -4 1 C-2.68 0.67 -1.36 0.34 0 0 Z " fill="#D8EBF2" transform="translate(133,129)"/>
<path d="M0 0 C1.32 0.99 2.64 1.98 4 3 C3.34 4.32 2.68 5.64 2 7 C0.68 7 -0.64 7 -2 7 C-2.33 5.35 -2.66 3.7 -3 2 C-2.01 1.34 -1.02 0.68 0 0 Z " fill="#D8EBF2" transform="translate(59,95)"/>
<path d="M0 0 C1.32 0.66 2.64 1.32 4 2 C3.67 3.65 3.34 5.3 3 7 C1.35 7 -0.3 7 -2 7 C-2.33 5.35 -2.66 3.7 -3 2 C-2.01 2 -1.02 2 0 2 C0 1.34 0 0.68 0 0 Z " fill="#D7E9F2" transform="translate(100,65)"/>
<path d="M0 0 C0.69867188 0.144375 1.39734375 0.28875 2.1171875 0.4375 C3.02726563 0.623125 3.93734375 0.80875 4.875 1 C5.77992188 1.185625 6.68484375 1.37125 7.6171875 1.5625 C9.92407903 2.06019595 9.92407903 2.06019595 12 2 C12 2.66 12 3.32 12 4 C10.265625 5.1171875 10.265625 5.1171875 8 6 C5.859375 5.3203125 5.859375 5.3203125 3.75 4.125 C3.04359375 3.73570313 2.3371875 3.34640625 1.609375 2.9453125 C1.07828125 2.63335937 0.5471875 2.32140625 0 2 C0 1.34 0 0.68 0 0 Z " fill="#264B64" transform="translate(142,112)"/>
<path d="M0 0 C2.31 1.98 4.62 3.96 7 6 C3 8 3 8 0 8 C0 5.36 0 2.72 0 0 Z " fill="#1C496B" transform="translate(162,35)"/>
<path d="M0 0 C3.99500618 1.3697164 6.80009492 3.25722422 10 6 C9.34 6.66 8.68 7.32 8 8 C6.66102417 7.04956626 5.32894573 6.08940853 4 5.125 C3.2575 4.59132812 2.515 4.05765625 1.75 3.5078125 C1.1725 3.01023438 0.595 2.51265625 0 2 C0 1.34 0 0.68 0 0 Z " fill="#CAE3EB" transform="translate(67,146)"/>
<path d="M0 0 C0.99 1.32 1.98 2.64 3 4 C2.01 4.99 1.02 5.98 0 7 C-1.32 6.34 -2.64 5.68 -4 5 C-3.6875 3.0625 -3.6875 3.0625 -3 1 C-2.01 0.67 -1.02 0.34 0 0 Z " fill="#DFEFF6" transform="translate(84,143)"/>
<path d="M0 0 C1.32 0 2.64 0 4 0 C4.66 1.32 5.32 2.64 6 4 C5.01 4 4.02 4 3 4 C3 4.66 3 5.32 3 6 C0.525 5.01 0.525 5.01 -2 4 C-1.34 2.68 -0.68 1.36 0 0 Z " fill="#DEEFF5" transform="translate(73,74)"/>
<path d="M0 0 C0.33 0.66 0.66 1.32 1 2 C1.66 2 2.32 2 3 2 C1.75023244 5.65316671 1.32901247 6.78065836 -2 9 C-2.33 8.34 -2.66 7.68 -3 7 C-2.06421005 4.64018187 -1.06652192 2.30368736 0 0 Z " fill="#E7F5F8" transform="translate(117,64)"/>
<path d="M0 0 C2.64 0 5.28 0 8 0 C8 1.32 8 2.64 8 4 C4.88742431 4 2.89234315 3.82638376 0 3 C0 2.01 0 1.02 0 0 Z " fill="#0D3E5D" transform="translate(96,63)"/>
<path d="M0 0 C-6.5 4 -6.5 4 -11 4 C-10.67 2.68 -10.34 1.36 -10 0 C-2.25 -1.125 -2.25 -1.125 0 0 Z " fill="#113E5A" transform="translate(143,179)"/>
<path d="M0 0 C3.63 1.65 7.26 3.3 11 5 C11 5.66 11 6.32 11 7 C10.01 7.33 9.02 7.66 8 8 C5.61438008 6.52652887 4.26132231 5.52264461 3 3 C2.01 2.67 1.02 2.34 0 2 C0 1.34 0 0.68 0 0 Z " fill="#144C6D" transform="translate(71,151)"/>
<path d="M0 0 C1.32 0.66 2.64 1.32 4 2 C4 3.32 4 4.64 4 6 C2.68 6.33 1.36 6.66 0 7 C0 6.34 0 5.68 0 5 C-0.99 4.67 -1.98 4.34 -3 4 C-2.01 2.68 -1.02 1.36 0 0 Z " fill="#DDEFF6" transform="translate(109,144)"/>
<path d="M0 0 C1.65 0.33 3.3 0.66 5 1 C4.67 2.65 4.34 4.3 4 6 C3.01 6.33 2.02 6.66 1 7 C1 6.01 1 5.02 1 4 C0.34 4 -0.32 4 -1 4 C-0.67 2.68 -0.34 1.36 0 0 Z " fill="#95AAB7" transform="translate(123,53)"/>
<path d="M0 0 C0.33 0.66 0.66 1.32 1 2 C-0.125 4.5625 -0.125 4.5625 -2 7 C-4.6875 7.8125 -4.6875 7.8125 -7 8 C-5.50902342 4.2047869 -3.24299151 2.38957269 0 0 Z " fill="#194564" transform="translate(45,28)"/>
<path d="M0 0 C0 0.99 0 1.98 0 3 C-1.98 3.33 -3.96 3.66 -6 4 C-6.66 3.01 -7.32 2.02 -8 1 C-3.375 -1.125 -3.375 -1.125 0 0 Z " fill="#114265" transform="translate(109,153)"/>
<path d="M0 0 C0 0.99 0 1.98 0 3 C-6.87794433 3.15631692 -6.87794433 3.15631692 -10 2 C-10.33 1.34 -10.66 0.68 -11 0 C-3.57142857 -1.28571429 -3.57142857 -1.28571429 0 0 Z " fill="#55798E" transform="translate(98,107)"/>
<path d="M0 0 C0.99 0 1.98 0 3 0 C3.99 2.31 4.98 4.62 6 7 C4.68 7.33 3.36 7.66 2 8 C0.74335022 5.09399739 0 3.20395416 0 0 Z " fill="#0B3959" transform="translate(146,92)"/>
<path d="M0 0 C2.31 0 4.62 0 7 0 C6.34 1.65 5.68 3.3 5 5 C3.68 4.67 2.36 4.34 1 4 C0.67 2.68 0.34 1.36 0 0 Z " fill="#02395D" transform="translate(83,65)"/>
<path d="M0 0 C3.98381075 2.16264012 6.88983545 4.71211176 10 8 C9.01 8.495 9.01 8.495 8 9 C7.67 8.34 7.34 7.68 7 7 C6.01 6.67 5.02 6.34 4 6 C4 5.34 4 4.68 4 4 C2.35 4 0.7 4 -1 4 C-0.67 2.68 -0.34 1.36 0 0 Z " fill="#1F687D" transform="translate(152,27)"/>
<path d="M0 0 C0.99 0.33 1.98 0.66 3 1 C-0.625 5.875 -0.625 5.875 -4 7 C-3.6875 4.625 -3.6875 4.625 -3 2 C-2.01 1.34 -1.02 0.68 0 0 Z " fill="#E7F2F6" transform="translate(75,117)"/>
<path d="M0 0 C3.465 1.485 3.465 1.485 7 3 C7 3.66 7 4.32 7 5 C4.36 5 1.72 5 -1 5 C-0.67 3.35 -0.34 1.7 0 0 Z " fill="#E2F1F5" transform="translate(145,115)"/>
<path d="M0 0 C0 0.33 0 0.66 0 1 C-4.62 2.32 -9.24 3.64 -14 5 C-14 4.34 -14 3.68 -14 3 C-9.05485878 0.07558908 -5.81671503 -1.74501451 0 0 Z " fill="#27617B" transform="translate(91,60)"/>
<path d="M0 0 C1.98 0.66 3.96 1.32 6 2 C3.53721199 4.46278801 1.29323018 4.99771255 -2 6 C-2.33 5.01 -2.66 4.02 -3 3 C-2.01 2.01 -1.02 1.02 0 0 Z " fill="#0D657E" transform="translate(134,17)"/>
<path d="M0 0 C5.94 1.485 5.94 1.485 12 3 C7.8085556 5.0957222 7.19789511 5.29166003 3 4 C2.01 3.34 1.02 2.68 0 2 C0 1.34 0 0.68 0 0 Z " fill="#34556F" transform="translate(138,117)"/>
<path d="M0 0 C1.65 0 3.3 0 5 0 C3.66667905 3.99996286 1.5042173 4.83782337 -2 7 C-1.42415568 4.61435923 -0.77772405 2.33317216 0 0 Z " fill="#E5F4F7" transform="translate(110,115)"/>
<path d="M0 0 C1.65 0.33 3.3 0.66 5 1 C4.67 1.99 4.34 2.98 4 4 C2.35 4.33 0.7 4.66 -1 5 C-1.33 4.34 -1.66 3.68 -2 3 C-1.34 3 -0.68 3 0 3 C0 2.01 0 1.02 0 0 Z " fill="#D5E7ED" transform="translate(150,110)"/>
<path d="M0 0 C0.99 0.66 1.98 1.32 3 2 C1.68 4.97 0.36 7.94 -1 11 C-1.66 11 -2.32 11 -3 11 C-2.01 7.37 -1.02 3.74 0 0 Z " fill="#1B4563" transform="translate(16,66)"/>
<path d="M0 0 C0.33 0.66 0.66 1.32 1 2 C0.34 2 -0.32 2 -1 2 C-1 2.66 -1 3.32 -1 4 C-3.97 5.32 -6.94 6.64 -10 8 C-8.76736651 4.30209954 -7.79947549 4.0645154 -4.4375 2.3125 C-3.61121094 1.87550781 -2.78492188 1.43851563 -1.93359375 0.98828125 C-1.29550781 0.66214844 -0.65742187 0.33601563 0 0 Z " fill="#184560" transform="translate(58,20)"/>
<path d="M0 0 C0 0.66 0 1.32 0 2 C2.31 2 4.62 2 7 2 C6.67 2.66 6.34 3.32 6 4 C0.06 3.01 0.06 3.01 -6 2 C-2 0 -2 0 0 0 Z " fill="#24516D" transform="translate(81,185)"/>
<path d="M0 0 C-1.44077046 3.36179774 -3.24750021 5.59156268 -6 8 C-6.66 8 -7.32 8 -8 8 C-6.48291727 4.46014029 -4.24676932 0 0 0 Z " fill="#E0F7FE" transform="translate(138,139)"/>
<path d="M0 0 C2.95183101 2.95183101 3.08663988 5.95511947 4 10 C3.01 10 2.02 10 1 10 C-0.1577506 6.52674819 -0.06866652 3.63932552 0 0 Z " fill="#D2E6EE" transform="translate(51,118)"/>
<path d="M0 0 C0.99 0 1.98 0 3 0 C3 1.32 3 2.64 3 4 C3.66 4.66 4.32 5.32 5 6 C2.69 5.67 0.38 5.34 -2 5 C-1.34 3.35 -0.68 1.7 0 0 Z " fill="#1F4964" transform="translate(129,95)"/>
<path d="M0 0 C-3.87564767 3.61139896 -3.87564767 3.61139896 -6 5 C-8.375 4.8125 -8.375 4.8125 -10 4 C-9.01 3.34 -8.02 2.68 -7 2 C-6.67 1.34 -6.34 0.68 -6 0 C-3 -1 -3 -1 0 0 Z " fill="#194A68" transform="translate(86,74)"/>
<path d="M0 0 C1.51400391 0.01740234 1.51400391 0.01740234 3.05859375 0.03515625 C4.07050781 0.04417969 5.08242187 0.05320312 6.125 0.0625 C7.29869141 0.07990234 7.29869141 0.07990234 8.49609375 0.09765625 C8.49609375 0.42765625 8.49609375 0.75765625 8.49609375 1.09765625 C7.8928125 1.1234375 7.28953125 1.14921875 6.66796875 1.17578125 C1.39074036 1.50097608 1.39074036 1.50097608 -3.06640625 4.16015625 C-3.54078125 4.79953125 -4.01515625 5.43890625 -4.50390625 6.09765625 C-3.43349052 0.13391149 -3.43349052 0.13391149 0 0 Z " fill="#1E6882" transform="translate(101.50390625,9.90234375)"/>
<path d="M0 0 C0.99 0.33 1.98 0.66 3 1 C0.69 3.31 -1.62 5.62 -4 8 C-4.33 7.01 -4.66 6.02 -5 5 C-3.35 3.35 -1.7 1.7 0 0 Z " fill="#DEF4FB" transform="translate(66,72)"/>
<path d="M0 0 C0.66 0.33 1.32 0.66 2 1 C0.68 4.96 -0.64 8.92 -2 13 C-3.30257083 7.78971669 -2.57807062 4.64052712 0 0 Z " fill="#E0F1F7" transform="translate(15,65)"/>
<path d="M0 0 C1.2065625 0.0309375 1.2065625 0.0309375 2.4375 0.0625 C0.82155168 2.10369788 -0.8481382 4.10322937 -2.5625 6.0625 C-3.2225 6.0625 -3.8825 6.0625 -4.5625 6.0625 C-3.48963568 0.08511307 -3.48963568 0.08511307 0 0 Z " fill="#D2E8ED" transform="translate(53.5625,140.9375)"/>
<path d="M0 0 C0.33 0.66 0.66 1.32 1 2 C-0.4375 4.625 -0.4375 4.625 -2 7 C-2.99 6.67 -3.98 6.34 -5 6 C-4.75 4.125 -4.75 4.125 -4 2 C-1.9375 0.75 -1.9375 0.75 0 0 Z " fill="#194564" transform="translate(140,130)"/>
<path d="M0 0 C2.12508244 3.18762365 2.5020163 5.26512223 3 9 C2.01 8.67 1.02 8.34 0 8 C-0.38063221 5.6739143 -0.71269945 3.33944736 -1 1 C-0.67 0.67 -0.34 0.34 0 0 Z " fill="#C2DEE9" transform="translate(145,92)"/>
<path d="M0 0 C0.68707555 2.49064888 1 4.37886292 1 7 C-0.32 7.33 -1.64 7.66 -3 8 C-1.125 1.125 -1.125 1.125 0 0 Z " fill="#18445F" transform="translate(144,58)"/>
<path d="M0 0 C1.0326802 2.78823655 1.04509293 3.8677274 0.0625 6.75 C-0.288125 7.4925 -0.63875 8.235 -1 9 C-1.99 8.67 -2.98 8.34 -4 8 C-2.87548273 5.0280615 -1.77706209 2.66559313 0 0 Z " fill="#C8E0EB" transform="translate(145,50)"/>
<path d="M0 0 C2.31 0 4.62 0 7 0 C4.31158141 2.25245881 2.35358125 3.88213958 -1 5 C-0.67 3.35 -0.34 1.7 0 0 Z " fill="#17415E" transform="translate(145,173)"/>
<path d="M0 0 C1.65 0.33 3.3 0.66 5 1 C4.67 2.32 4.34 3.64 4 5 C2.35 5.33 0.7 5.66 -1 6 C-0.01 5.67 0.98 5.34 2 5 C2 3.68 2 2.36 2 1 C1.34 0.67 0.68 0.34 0 0 Z " fill="#305B76" transform="translate(111,145)"/>
<path d="M0 0 C0.33 0.99 0.66 1.98 1 3 C-0.65 3.33 -2.3 3.66 -4 4 C-4.33 4.99 -4.66 5.98 -5 7 C-5.99 6.34 -6.98 5.68 -8 5 C-7.34 5 -6.68 5 -6 5 C-5.67 3.68 -5.34 2.36 -5 1 C-3.35 1.33 -1.7 1.66 0 2 C0 1.34 0 0.68 0 0 Z " fill="#2D5570" transform="translate(79,137)"/>
<path d="M0 0 C0.33 0.99 0.66 1.98 1 3 C2.65 3.33 4.3 3.66 6 4 C3.8614515 6.1385485 2.86724686 6.42655063 0 7 C-1.04449911 3.86650268 -0.93423645 3.01031744 0 0 Z " fill="#24536E" transform="translate(51,125)"/>
<path d="M0 0 C0.99 0.33 1.98 0.66 3 1 C1.25 3.0625 1.25 3.0625 -1 5 C-3.25 4.75 -3.25 4.75 -5 4 C-2.6875 1.9375 -2.6875 1.9375 0 0 Z " fill="#D1E5ED" transform="translate(72,67)"/>
<path d="M0 0 C0.99 0.495 0.99 0.495 2 1 C2 2.32 2 3.64 2 5 C3.32 5.33 4.64 5.66 6 6 C4.68 6.99 3.36 7.98 2 9 C2 8.34 2 7.68 2 7 C1.34 6.67 0.68 6.34 0 6 C0 4.02 0 2.04 0 0 Z " fill="#155676" transform="translate(144,56)"/>
<path d="M0 0 C0 0.66 0 1.32 0 2 C-3.3 1.67 -6.6 1.34 -10 1 C-6.1496895 -1.56687367 -4.41430237 -0.83288724 0 0 Z " fill="#CBE8EE" transform="translate(115,62)"/>
<path d="M0 0 C0.99 0.33 1.98 0.66 3 1 C2.67 2.32 2.34 3.64 2 5 C0.35 4.67 -1.3 4.34 -3 4 C-2.01 2.68 -1.02 1.36 0 0 Z " fill="#023859" transform="translate(122,145)"/>
<path d="M0 0 C3.63 0 7.26 0 11 0 C10.34 1.65 9.68 3.3 9 5 C8.67 3.68 8.34 2.36 8 1 C5.36 1 2.72 1 0 1 C0 0.67 0 0.34 0 0 Z " fill="#1D4055" transform="translate(32,137)"/>
<path d="M0 0 C0.9075 0.103125 1.815 0.20625 2.75 0.3125 C0.0901439 3.75466672 -3.15288286 4.30754674 -7.25 5.3125 C-4.05 0.38942308 -4.05 0.38942308 0 0 Z " fill="#A2B1B7" transform="translate(68.25,126.6875)"/>
<path d="M0 0 C0.33 0.66 0.66 1.32 1 2 C0.67 2.66 0.34 3.32 0 4 C-0.66 4 -1.32 4 -2 4 C-2.33 5.32 -2.66 6.64 -3 8 C-3.33 7.01 -3.66 6.02 -4 5 C-4.66 4.67 -5.32 4.34 -6 4 C-4.02 2.68 -2.04 1.36 0 0 Z " fill="#15405F" transform="translate(74,69)"/>
<path d="M0 0 C-0.33 2.31 -0.66 4.62 -1 7 C-2.32 5.68 -3.64 4.36 -5 3 C-1.125 0 -1.125 0 0 0 Z " fill="#E6F1F4" transform="translate(143,57)"/>
<path d="M0 0 C0.33 0 0.66 0 1 0 C0.67 2.97 0.34 5.94 0 9 C-0.99 8.67 -1.98 8.34 -3 8 C-1.125 2.25 -1.125 2.25 0 0 Z " fill="#B8D4E2" transform="translate(142,38)"/>
<path d="M0 0 C2.64 0 5.28 0 8 0 C8 0.66 8 1.32 8 2 C5.6875 2.6875 5.6875 2.6875 3 3 C1.1875 1.5625 1.1875 1.5625 0 0 Z " fill="#3C5A71" transform="translate(146,107)"/>
<path d="M0 0 C-0.33 1.65 -0.66 3.3 -1 5 C-2.65 4.67 -4.3 4.34 -6 4 C-6 3.01 -6 2.02 -6 1 C-3 0 -3 0 0 0 Z " fill="#254F70" transform="translate(64,92)"/>
<path d="M0 0 C2.64 0.33 5.28 0.66 8 1 C7.01 2.485 7.01 2.485 6 4 C1.125 2.25 1.125 2.25 0 0 Z " fill="#1A5C78" transform="translate(109,59)"/>
</svg>
