<?xml version="1.0" encoding="UTF-8"?>
<svg version="1.1" xmlns="http://www.w3.org/2000/svg" width="200" height="200">
<path d="M0 0 C66 0 132 0 200 0 C200 66 200 132 200 200 C134 200 68 200 0 200 C0 134 0 68 0 0 Z " fill="#F6F7F9" transform="translate(0,0)"/>
<path d="M0 0 C47.52 0 95.04 0 144 0 C144 47.52 144 95.04 144 144 C128.16 144 112.32 144 96 144 C96 139.05 96 134.1 96 129 C106.89 129 117.78 129 129 129 C129 91.38 129 53.76 129 15 C91.38 15 53.76 15 15 15 C15 22.59 15 30.18 15 38 C14.34 38 13.68 38 13 38 C13 37.34 13 36.68 13 36 C12.43796875 35.73316406 11.8759375 35.46632812 11.296875 35.19140625 C5.72021876 32.29875293 3.92426913 30.48243481 0 25 C0 16.75 0 8.5 0 0 Z " fill="#64316B" transform="translate(28,28)"/>
<path d="M0 0 C0.66 0 1.32 0 2 0 C2 0.66 2 1.32 2 2 C3.32 2.66 4.64 3.32 6 4 C6 4.66 6 5.32 6 6 C6.66 6 7.32 6 8 6 C8 6.66 8 7.32 8 8 C8.55505722 8.22908554 9.11011444 8.45817108 9.68199158 8.69419861 C12.65398465 10.36840853 14.68905018 12.46544387 17.08813477 14.89282227 C17.58133209 15.38894012 18.07452942 15.88505798 18.58267212 16.39620972 C19.64942303 17.47055309 20.71385769 18.54720026 21.77621651 19.62588692 C23.45708374 21.33232222 25.14415649 23.03239508 26.83299255 24.73094177 C30.41512224 28.33590451 33.98935391 31.94863566 37.5625 35.5625 C41.70666748 39.75384228 45.85399525 43.9419505 50.00984001 48.12171745 C51.67300785 49.79786427 53.33004596 51.47991471 54.98695374 53.1622467 C56.00475946 54.18731616 57.02284629 55.21210661 58.04125977 56.23657227 C58.92854263 57.13432877 59.8158255 58.03208527 60.72999573 58.95704651 C62.90888367 61.19161355 62.90888367 61.19161355 66 62 C66 42.53 66 23.06 66 3 C70.95 3 75.9 3 81 3 C81 34.35 81 65.7 81 98 C76.21781786 93.90098673 71.85420103 89.92377829 67.50390625 85.44140625 C65.52010518 83.50712283 63.51681328 81.7118567 61.4140625 79.9140625 C55.93760903 75.16345795 50.89941069 69.97090149 45.8125 64.8125 C43.884495 62.857695 41.95304633 60.90638463 40.01953125 58.95703125 C39.17495361 58.10085205 38.33037598 57.24467285 37.46020508 56.36254883 C35.07722579 54.07416036 32.59682071 52.03882167 30 50 C28.31002677 48.35697047 26.64783606 46.68528688 25 45 C20.545 40.545 20.545 40.545 16 36 C15.67 56.46 15.34 76.92 15 98 C10.05 98 5.1 98 0 98 C0 65.66 0 33.32 0 0 Z " fill="#151D25" transform="translate(28,74)"/>
<path d="M0 0 C0.99 0.66 1.98 1.32 3 2 C1.73867769 4.52264461 0.38561992 5.52652887 -2 7 C-2.99 6.67 -3.98 6.34 -5 6 C-5 4.35 -5 2.7 -5 1 C-3 0 -3 0 0 0 Z " fill="#E9ECED" transform="translate(55,120)"/>
<path d="M0 0 C4.42857143 5.14285714 4.42857143 5.14285714 5 9 C2 9 2 9 -0.1875 7 C-0.785625 6.34 -1.38375 5.68 -2 5 C-1.34 3.35 -0.68 1.7 0 0 Z " fill="#EEF2F4" transform="translate(58,96)"/>
<path d="M0 0 C1.65 1.65 3.3 3.3 5 5 C4.34 5.66 3.68 6.32 3 7 C2.01 6.67 1.02 6.34 0 6 C0 4.02 0 2.04 0 0 Z " fill="#E8EDF2" transform="translate(43,109)"/>
<path d="M0 0 C1.65 1.32 3.3 2.64 5 4 C4.67 4.99 4.34 5.98 4 7 C2.35 5.35 0.7 3.7 -1 2 C-0.67 1.34 -0.34 0.68 0 0 Z " fill="#20262C" transform="translate(50,95)"/>
</svg>
