<?xml version="1.0" encoding="UTF-8"?>
<svg version="1.1" xmlns="http://www.w3.org/2000/svg" width="2000" height="1198">
<path d="M0 0 C190.74 0 381.48 0 578 0 C578 99.33 578 198.66 578 301 C531.47 301.495 531.47 301.495 484 302 C493.77180543 318.66955043 503.55601012 335.28132731 513.6171875 351.76953125 C518.30864886 359.47517582 522.90542788 367.2363363 527.5 375 C533.48878382 385.11588975 539.51565199 395.20641171 545.625 405.25 C545.97274475 405.8217395 546.3204895 406.393479 546.67877197 406.98254395 C549.11685807 410.98977938 551.55804334 414.99512241 554 419 C556.79385607 423.58200252 559.58623693 428.16489554 562.375 432.75 C562.72258362 433.32141724 563.07016724 433.89283447 563.42828369 434.48156738 C569.58962845 444.61747958 575.65234755 454.81038186 581.69436646 465.01776123 C588.83139464 477.07250642 596.07293961 489.06091263 603.36328125 501.0234375 C603.97510254 502.02987305 604.58692383 503.03630859 605.21728516 504.07324219 C606.4093899 506.03037061 607.60702373 507.98414152 608.81005859 509.93457031 C609.36129395 510.83530273 609.9125293 511.73603516 610.48046875 512.6640625 C610.96797607 513.45506348 611.4554834 514.24606445 611.95776367 515.06103516 C613 517 613 517 613 519 C616.01127633 516.35593825 617.86134585 513.11582625 619.8515625 509.69140625 C620.22265137 509.06175461 620.59374023 508.43210297 620.97607422 507.78337097 C621.77707712 506.4234765 622.57610009 505.06241427 623.37335205 503.70031738 C625.50997158 500.05096665 627.6621192 496.41078416 629.8125 492.76953125 C630.46830551 491.65782059 630.46830551 491.65782059 631.13735962 490.52365112 C635.24584962 483.56594737 639.42299724 476.65152802 643.625 469.75 C644.32585251 468.59806689 645.02669884 467.44613003 645.72753906 466.29418945 C648.1634945 462.29200504 650.60261434 458.29175177 653.04174805 454.29150391 C655.48817118 450.27888859 657.93285355 446.26521976 660.375 442.25 C660.72258362 441.67858276 661.07016724 441.10716553 661.42828369 440.51843262 C667.59166378 430.37917213 673.65609186 420.18273822 679.70040894 409.97216797 C686.76629109 398.03853409 693.93932167 386.17323847 701.15234375 374.328125 C704.45768574 368.89890428 707.73703139 363.45476634 711 358 C715.82393762 349.93994122 720.68706822 341.90397193 725.5625 333.875 C726.23474609 332.76769531 726.90699219 331.66039062 727.59960938 330.51953125 C733.38231953 321.00227007 739.1929038 311.50252106 745 302 C698.47 301.505 698.47 301.505 651 301 C651 201.67 651 102.34 651 0 C841.74 0 1032.48 0 1229 0 C1229 99.33 1229 198.66 1229 301 C1197.65 301 1166.3 301 1134 301 C1145.91062785 321.06000479 1157.85577229 341.08312503 1170 361 C1172.79385607 365.58200252 1175.58623693 370.16489554 1178.375 374.75 C1178.72258362 375.32141724 1179.07016724 375.89283447 1179.42828369 376.48156738 C1185.59408408 386.62480945 1191.66115381 396.82510653 1197.7074585 407.03991699 C1203.2466722 416.39611734 1208.83974769 425.71654964 1214.5 435 C1220.57166203 444.95820857 1226.55909433 454.96325383 1232.5 465 C1238.48901107 475.11575766 1244.51565004 485.2064085 1250.625 495.25 C1251.14661713 496.10760925 1251.14661713 496.10760925 1251.67877197 496.98254395 C1254.11685807 500.98977938 1256.55804334 504.99512241 1259 509 C1261.79385607 513.58200252 1264.58623693 518.16489554 1267.375 522.75 C1267.72258362 523.32141724 1268.07016724 523.89283447 1268.42828369 524.48156738 C1274.59408408 534.62480945 1280.66115381 544.82510653 1286.7074585 555.03991699 C1292.2466722 564.39611734 1297.83974769 573.71654964 1303.5 583 C1309.57166203 592.95820857 1315.55909433 602.96325383 1321.5 613 C1327.48901107 623.11575766 1333.51565004 633.2064085 1339.625 643.25 C1339.97274475 643.8217395 1340.3204895 644.393479 1340.67877197 644.98254395 C1343.11685807 648.98977938 1345.55804334 652.99512241 1348 657 C1350.79385607 661.58200252 1353.58623693 666.16489554 1356.375 670.75 C1356.72258362 671.32141724 1357.07016724 671.89283447 1357.42828369 672.48156738 C1363.59408408 682.62480945 1369.66115381 692.82510653 1375.7074585 703.03991699 C1381.24667174 712.39611656 1386.83969502 721.7165822 1392.5 731 C1398.63421864 741.0623657 1404.68391779 751.17166593 1410.6875 761.3125 C1417.7770769 773.28526715 1424.95077725 785.20212537 1432.21044922 797.07275391 C1435.54279482 802.52361663 1438.86783266 807.97890946 1442.1875 813.4375 C1442.53807465 814.0137915 1442.88864929 814.59008301 1443.24984741 815.18383789 C1449.99754102 826.28329513 1456.63475977 837.44734439 1463.22924805 848.63842773 C1468.67842046 857.86042456 1474.3180028 866.90880447 1480 876 C1520.59 876.33 1561.18 876.66 1603 877 C1603 976.33 1603 1075.66 1603 1178 C1408.63 1178 1214.26 1178 1014 1178 C1014 1078.67 1014 979.34 1014 877 C1065.48 876.505 1065.48 876.505 1118 876 C1108.22819457 859.33044957 1098.44398988 842.71867269 1088.3828125 826.23046875 C1083.69135114 818.52482418 1079.09457212 810.7636637 1074.5 803 C1068.51121618 792.88411025 1062.48434801 782.79358829 1056.375 772.75 C1056.02725525 772.1782605 1055.6795105 771.606521 1055.32122803 771.01745605 C1052.88314193 767.01022062 1050.44195666 763.00487759 1048 759 C1045.20614393 754.41799748 1042.41376307 749.83510446 1039.625 745.25 C1039.27741638 744.67858276 1038.92983276 744.10716553 1038.57171631 743.51843262 C1032.40591592 733.37519055 1026.33884619 723.17489347 1020.2925415 712.96008301 C1014.7533278 703.60388266 1009.16025231 694.28345036 1003.5 685 C997.42833797 675.04179143 991.44090567 665.03674617 985.5 655 C978.15966317 642.6017814 970.73496065 630.2589472 963.234375 617.95703125 C960.63133472 613.68767857 958.03978288 609.41187768 955.46261597 605.12686157 C953.89653158 602.52305613 952.32736981 599.92111107 950.75811768 597.31921387 C950.00982011 596.07655219 949.26300446 594.83299679 948.51776123 593.58850098 C947.48712948 591.86783579 946.45072327 590.15063333 945.4140625 588.43359375 C944.53161865 586.96490845 944.53161865 586.96490845 943.63134766 585.46655273 C942.22711423 583.34339046 940.88093729 581.6964127 939 580 C938.27018921 581.23411621 938.27018921 581.23411621 937.52563477 582.49316406 C928.92086476 597.03851013 920.29696945 611.56986503 911.5 626 C904.56374562 637.37997122 897.73151109 648.81900928 890.9453125 660.2890625 C884.67329237 670.88623231 878.33607012 681.43988313 872 692 C893.45 692.33 914.9 692.66 937 693 C937 792.33 937 891.66 937 994 C723.82 994 510.64 994 291 994 C291 894.67 291 795.34 291 693 C312.78 692.67 334.56 692.34 357 692 C351.39 682.76 345.78 673.52 340 664 C336.99437884 659.00315482 333.99176912 654.00506772 331 649 C325.48882194 639.79381184 319.95151156 630.60419512 314.37619019 621.43670654 C311.59950506 616.87053131 308.82656745 612.30207813 306.05310059 607.73394775 C304.96986949 605.95038962 303.88581624 604.16733272 302.80175781 602.38427734 C300.67483208 598.8845009 298.55587573 595.37995815 296.4375 591.875 C295.7875708 590.80725342 295.1376416 589.73950684 294.46801758 588.6394043 C293.87915771 587.66269775 293.29029785 586.68599121 292.68359375 585.6796875 C292.16337646 584.82101074 291.64315918 583.96233398 291.10717773 583.07763672 C290 581 290 581 290 579 C286.98872185 581.64406335 285.13866207 584.88417631 283.1484375 588.30859375 C282.77743927 588.93806412 282.40644104 589.56753448 282.02420044 590.21607971 C281.22328201 591.57578688 280.42435112 592.93666635 279.62719727 594.29858398 C277.48755589 597.95337011 275.33290141 601.59929305 273.1796875 605.24609375 C272.52326263 606.35904312 272.52326263 606.35904312 271.85357666 607.49447632 C267.79547278 614.36659178 263.65814449 621.18799402 259.5 628 C253.4032842 637.9975836 247.39820249 648.0457759 241.4375 658.125 C235.08516243 668.86566739 228.62808767 679.52949224 222.05615234 690.13769531 C216.37400297 699.33467808 210.85195521 708.62176427 205.34912109 717.92675781 C199.79233304 727.32160125 194.18310843 736.68104168 188.5 746 C182.42808497 755.95804738 176.44067784 765.96312655 170.5 776 C163.78219429 787.34885514 156.99250553 798.65045924 150.1328125 809.9140625 C145.55894654 817.42516719 141.01679816 824.95443808 136.5 832.5 C130.9251115 841.80954446 125.317263 851.09857717 119.6875 860.375 C119.31447754 860.99012451 118.94145508 861.60524902 118.55712891 862.23901367 C117.50107948 863.98011248 116.44392312 865.72053974 115.38671875 867.4609375 C114.78045654 868.45915527 114.17419434 869.45737305 113.54956055 870.48583984 C112.40263033 872.34673276 111.21254613 874.18118081 110 876 C144.32 876.33 178.64 876.66 214 877 C214 976.33 214 1075.66 214 1178 C19.63 1178 -174.74 1178 -375 1178 C-375 1078.67 -375 979.34 -375 877 C-313.62 876.505 -313.62 876.505 -251 876 C-245.39 866.43 -239.78 856.86 -234 847 C-225.15106106 832.40585443 -225.15106106 832.40585443 -221.3828125 826.23046875 C-216.69135114 818.52482418 -212.09457212 810.7636637 -207.5 803 C-201.51121618 792.88411025 -195.48434801 782.79358829 -189.375 772.75 C-189.02725525 772.1782605 -188.6795105 771.606521 -188.32122803 771.01745605 C-185.5364429 766.44038652 -182.74745795 761.86588018 -179.95825195 757.29150391 C-177.51182882 753.27888859 -175.06714645 749.26521976 -172.625 745.25 C-172.10362457 744.39287415 -172.10362457 744.39287415 -171.57171631 743.51843262 C-165.40591592 733.37519055 -159.33884619 723.17489347 -153.2925415 712.96008301 C-147.41334244 703.02961863 -141.46565015 693.14422471 -135.45800781 683.29101562 C-129.7354775 673.90156926 -124.10094959 664.46241406 -118.5 655 C-112.51098893 644.88424234 -106.48434996 634.7935915 -100.375 624.75 C-100.02725525 624.1782605 -99.6795105 623.606521 -99.32122803 623.01745605 C-96.5364429 618.44038652 -93.74745795 613.86588018 -90.95825195 609.29150391 C-88.51182882 605.27888859 -86.06714645 601.26521976 -83.625 597.25 C-83.27741638 596.67858276 -82.92983276 596.10716553 -82.57171631 595.51843262 C-76.40591592 585.37519055 -70.33884619 575.17489347 -64.2925415 564.96008301 C-58.75332826 555.60388344 -53.16030498 546.2834178 -47.5 537 C-41.36578136 526.9376343 -35.31608221 516.82833407 -29.3125 506.6875 C-22.2229231 494.71473285 -15.04922275 482.79787463 -7.78955078 470.92724609 C-4.4572055 465.4763839 -1.13198162 460.0212031 2.1875 454.5625 C2.540401 453.98222046 2.893302 453.40194092 3.25689697 452.80407715 C9.47904549 442.56576002 15.60408025 432.27139138 21.70663452 421.9614563 C27.24612384 412.60479984 32.83941714 403.28387355 38.5 394 C44.63421832 383.93763484 50.68395776 373.82835744 56.6875 363.6875 C64.36001542 350.72985428 72.14431442 337.84808389 80 325 C84.62 317.41 89.24 309.82 94 302 C47.47 301.505 47.47 301.505 0 301 C0 201.67 0 102.34 0 0 Z " fill="#862334" transform="translate(385,12)"/>
<path d="M0 0 C139.59 0 279.18 0 423 0 C423 48.18 423 96.36 423 146 C372.18 146 321.36 146 269 146 C273.78271324 154.80556013 273.78271324 154.80556013 278.8125 163.4375 C279.36091553 164.34640991 279.36091553 164.34640991 279.92041016 165.27368164 C282.50013757 169.54306405 285.09693072 173.80207043 287.69140625 178.0625 C289.08617932 180.35402001 290.48075828 182.64565679 291.875 184.9375 C292.23558502 185.53005585 292.59617004 186.12261169 292.96768188 186.73312378 C299.28761969 197.12404937 305.51068709 207.57031745 311.70526123 218.03634644 C317.2452173 227.39372885 322.83896823 236.7153902 328.5 246 C334.63421864 256.0623657 340.68391779 266.17166593 346.6875 276.3125 C353.7770769 288.28526715 360.95077725 300.20212537 368.21044922 312.07275391 C371.5427945 317.5236161 374.86801838 322.9787969 378.1875 328.4375 C378.7168515 329.30791931 378.7168515 329.30791931 379.25689697 330.19592285 C385.47904549 340.43423998 391.60408025 350.72860862 397.70663452 361.0385437 C403.58572329 370.96881176 409.5325263 380.85451397 415.54098511 390.70697021 C421.28919713 400.13619799 426.94126369 409.61960916 432.5625 419.125 C439.05357841 430.10103837 445.65372823 440.99824114 452.36572266 451.84082031 C457.01123789 459.35723828 461.53841763 466.93522277 466.01074219 474.55566406 C470.31231704 481.87174901 474.7076699 489.12836688 479.125 496.375 C485.32118082 506.5418004 491.43593898 516.75387579 497.5 527 C504.27558847 538.44707042 511.11851506 549.8499844 518.04516602 561.20629883 C521.27620294 566.50587709 524.49270762 571.81213916 527.65625 577.15234375 C528.21449463 578.09303711 528.77273926 579.03373047 529.34790039 580.00292969 C530.37755802 581.74185078 531.40305967 583.4832422 532.42358398 585.22753906 C532.87032471 585.98131836 533.31706543 586.73509766 533.77734375 587.51171875 C534.16140381 588.16615967 534.54546387 588.82060059 534.94116211 589.49487305 C535.94010036 591.16764484 535.94010036 591.16764484 538 592 C538.26159912 591.29560791 538.52319824 590.59121582 538.79272461 589.86547852 C540.08772408 586.79178613 541.62721936 584.02834092 543.31640625 581.15234375 C543.80830193 580.31246918 543.80830193 580.31246918 544.31013489 579.45562744 C545.39049954 577.61401395 546.47626649 575.77565711 547.5625 573.9375 C548.32965246 572.63390729 549.09674122 571.33027709 549.86376953 570.02661133 C555.6468966 560.21532248 561.53900535 550.47282783 567.47192383 540.75146484 C572.97236204 531.7320469 578.3724484 522.65561861 583.75 513.5625 C589.40576625 504.000758 595.12785806 494.49289497 601.01757812 485.07275391 C606.30512851 476.5805774 611.38683561 467.96867189 616.47949219 459.35888672 C622.43281553 449.29583461 628.45191422 439.27708293 634.53988647 429.29495239 C640.28844998 419.8650743 645.94080705 410.38097737 651.5625 400.875 C657.91483757 390.13433261 664.37191233 379.47050776 670.94384766 368.86230469 C676.62599703 359.66532192 682.14804479 350.37823573 687.65087891 341.07324219 C693.54693742 331.10479529 699.51039003 321.18130992 705.54071045 311.2935791 C711.28900197 301.86416043 716.94107879 292.38051787 722.5625 282.875 C728.91483757 272.13433261 735.37191233 261.47050776 741.94384766 250.86230469 C747.62599703 241.66532192 753.14804479 232.37823573 758.65087891 223.07324219 C764.87701546 212.54673342 771.18570177 202.07538752 777.55273438 191.63354492 C784.09898938 180.87887315 790.52544849 170.0542135 796.93359375 159.21679688 C797.32430557 158.55656021 797.7150174 157.89632355 798.11756897 157.21607971 C798.84934804 155.97919211 799.58038171 154.74186308 800.31053162 153.50401306 C801.81761075 150.95634109 803.35732026 148.46401961 805 146 C754.18 146 703.36 146 651 146 C651 97.82 651 49.64 651 0 C790.59 0 930.18 0 1074 0 C1074 48.18 1074 96.36 1074 146 C1022.85 146 971.7 146 919 146 C925.435 156.395 925.435 156.395 932 167 C934.72110445 171.5461818 937.43877348 176.09139336 940.12719727 180.65649414 C942.13645689 184.06729864 944.15378111 187.4733233 946.171875 190.87890625 C946.78192383 191.90837875 946.78192383 191.90837875 947.40429688 192.95864868 C951.3869244 199.66926038 955.43745637 206.33756224 959.5 213 C965.69780805 223.16583669 971.80877051 233.38011772 977.875 243.625 C984.01036731 253.98470367 990.19841838 264.3068596 996.50488281 274.56347656 C999.68298441 279.74268198 1002.84316536 284.93281202 1006 290.125 C1006.35821838 290.71414185 1006.71643677 291.30328369 1007.08551025 291.91027832 C1013.36402438 302.24365887 1019.54700794 312.63211096 1025.70581055 323.03717041 C1031.24557501 332.39428218 1036.83903365 341.71573599 1042.5 351 C1049.56061802 362.58081517 1056.507553 374.22632942 1063.40625 385.90429688 C1067.55680719 392.92482944 1071.76174961 399.90575799 1076.05004883 406.84350586 C1079.32903181 412.15137752 1082.57191902 417.4811211 1085.8125 422.8125 C1086.17005371 423.40071533 1086.52760742 423.98893066 1086.89599609 424.5949707 C1093.23696134 435.03328176 1099.48403144 445.5256364 1105.70498657 456.03579712 C1111.24502711 465.39336578 1116.83875577 474.71528024 1122.5 484 C1129.56061802 495.58081517 1136.507553 507.22632942 1143.40625 518.90429688 C1147.55680719 525.92482944 1151.76174961 532.90575799 1156.05004883 539.84350586 C1159.32903181 545.15137752 1162.57191902 550.4811211 1165.8125 555.8125 C1166.34883057 556.694823 1166.34883057 556.694823 1166.89599609 557.5949707 C1173.23657659 568.0326484 1179.48269554 578.52468263 1185.70397949 589.03378296 C1191.61059148 599.00870632 1197.57903097 608.94318518 1203.609375 618.84375 C1209.49328161 628.50389518 1215.32575726 638.19378117 1221.13653564 647.89807129 C1226.19031087 656.33651488 1231.2739801 664.75578823 1236.390625 673.15625 C1243.24205469 684.40486591 1249.99906212 695.70616025 1256.70773315 707.04046631 C1262.24686052 716.39647725 1267.83974911 725.71679004 1273.5 735 C1279.69766618 745.16592453 1285.80876923 755.38011555 1291.875 765.625 C1298.01036731 775.98470367 1304.19841838 786.3068596 1310.50488281 796.56347656 C1313.68298489 801.74268275 1316.84299176 806.93291689 1320 812.125 C1320.35589203 812.71015381 1320.71178406 813.29530762 1321.07846069 813.89819336 C1327.51672731 824.49111971 1333.851025 835.14425137 1340.15835571 845.81555176 C1345.12091531 854.21011138 1350.10810066 862.57897789 1355.41186523 870.76464844 C1358 874.79733729 1358 874.79733729 1358 877 C1387.7 877 1417.4 877 1448 877 C1448 925.18 1448 973.36 1448 1023 C1304.78 1023 1161.56 1023 1014 1023 C1014 974.82 1014 926.64 1014 877 C1068.12 876.67 1122.24 876.34 1178 876 C1162.50686914 849.89333358 1162.50686914 849.89333358 1146.78955078 823.92724609 C1143.4572055 818.4763839 1140.13198162 813.0212031 1136.8125 807.5625 C1136.459599 806.98222046 1136.106698 806.40194092 1135.74310303 805.80407715 C1129.52095451 795.56576002 1123.39591975 785.27139138 1117.29336548 774.9614563 C1111.07617746 764.46011058 1104.77620459 754.01291521 1098.42285156 743.59350586 C1092.96058422 734.62503614 1087.59602664 725.60063956 1082.25 716.5625 C1077.08047197 707.82324219 1071.88323628 699.11006034 1066.5 690.5 C1060.68997991 681.20733273 1055.09962416 671.79109414 1049.52050781 662.35888672 C1043.90626216 652.86898615 1038.24037259 643.41413009 1032.5 634 C1026.42802627 624.04198445 1020.44090281 614.03674134 1014.5 604 C1008.51098893 593.88424234 1002.48434996 583.7935915 996.375 573.75 C996.02725525 573.1782605 995.6795105 572.606521 995.32122803 572.01745605 C992.88314193 568.01022062 990.44195666 564.00487759 988 560 C985.20614393 555.41799748 982.41376307 550.83510446 979.625 546.25 C979.27741638 545.67858276 978.92983276 545.10716553 978.57171631 544.51843262 C972.40591592 534.37519055 966.33884619 524.17489347 960.2925415 513.96008301 C954.41372908 504.03027171 948.46719577 494.14503029 942.45901489 484.29302979 C936.71080217 474.86380086 931.05881794 465.38034325 925.4375 455.875 C919.71194825 446.19411539 913.92349397 436.56151023 908 427 C902.07648504 417.43845588 896.28917354 407.80524749 890.5625 398.125 C884.61500931 388.07784601 878.65780884 378.03707342 872.62033081 368.04364014 C871.88010222 366.81724523 871.14140485 365.58992465 870.40432739 364.3616333 C869.38840423 362.6695079 868.36622398 360.98114387 867.34375 359.29296875 C866.76818359 358.3393042 866.19261719 357.38563965 865.59960938 356.40307617 C864.20711659 354.31114905 862.85438494 352.67939665 861 351 C860.74057617 351.7007666 860.48115234 352.4015332 860.21386719 353.12353516 C858.88932905 356.26225365 857.30439886 359.0862293 855.578125 362.0234375 C855.24190125 362.59720627 854.90567749 363.17097504 854.55926514 363.76213074 C853.45991374 365.63531347 852.35522175 367.5052758 851.25 369.375 C850.47648621 370.68867579 849.70304962 372.00239703 848.9296875 373.31616211 C842.66145681 383.94746273 836.26918714 394.50089035 829.82177734 405.02441406 C826.47576086 410.48960421 823.14163441 415.96201518 819.8125 421.4375 C819.45978027 422.01750763 819.10706055 422.59751526 818.74365234 423.19509888 C812.52130932 433.4336847 806.39608822 443.72832401 800.29336548 454.0385437 C794.07617746 464.53988942 787.77620459 474.98708479 781.42285156 485.40649414 C775.96058422 494.37496386 770.59602664 503.39936044 765.25 512.4375 C759.59402041 521.99912023 753.87214615 531.50709828 747.98242188 540.92724609 C742.69487149 549.4194226 737.61316439 558.03132811 732.52050781 566.64111328 C726.90626216 576.13101385 721.24037259 585.58586991 715.5 595 C709.4280266 604.95801501 703.4408622 614.96323492 697.5 625 C688.77659388 639.73478652 679.91402191 654.37974302 671 669 C666.38 676.59 661.76 684.18 657 692 C698.25 692.33 739.5 692.66 782 693 C782 741.18 782 789.36 782 839 C619.97 839 457.94 839 291 839 C291 790.82 291 742.64 291 693 C332.58 693 374.16 693 417 693 C406.50328108 675.32131551 396.00491471 657.67971073 385.3125 640.125 C380.64771726 632.45265996 376.07365889 624.726878 371.5 617 C365.51098893 606.88424234 359.48434996 596.7935915 353.375 586.75 C353.02725525 586.1782605 352.6795105 585.606521 352.32122803 585.01745605 C349.88314193 581.01022062 347.44195666 577.00487759 345 573 C342.20614393 568.41799748 339.41376307 563.83510446 336.625 559.25 C336.27741638 558.67858276 335.92983276 558.10716553 335.57171631 557.51843262 C329.40591592 547.37519055 323.33884619 537.17489347 317.2925415 526.96008301 C311.07563009 516.45919392 304.77592667 506.01245943 298.42285156 495.59350586 C292.96058422 486.62503614 287.59602664 477.60063956 282.25 468.5625 C277.08047197 459.82324219 271.88323628 451.11006034 266.5 442.5 C261.11676161 433.88993629 255.91961383 425.17671024 250.75 416.4375 C244.57907382 406.00560451 238.36614367 395.60230346 232.0625 385.25 C231.71337555 384.6766391 231.3642511 384.1032782 231.00454712 383.51254272 C230.48759781 382.66364975 230.48759781 382.66364975 229.96020508 381.79760742 C223.92818653 371.89202679 217.95174487 361.95397794 212 352 C209.09965559 354.5816069 207.3395311 357.54443444 205.3671875 360.87109375 C205.01843063 361.45608139 204.66967377 362.04106903 204.31034851 362.64378357 C203.55653827 363.90922015 202.80473287 365.17585271 202.05471802 366.44354248 C200.44482575 369.16457984 198.82549672 371.87995573 197.20649719 374.59558105 C196.36902728 376.00033366 195.53202653 377.40536606 194.69548035 378.81066895 C190.69538751 385.52599075 186.63240867 392.20179472 182.5625 398.875 C176.05907874 409.54989983 169.65912386 420.28365534 163.29226685 431.04046631 C157.07543853 441.54116612 150.77581979 451.98771584 144.42285156 462.40649414 C138.96058422 471.37496386 133.59602664 480.39936044 128.25 489.4375 C122.59402041 498.99912023 116.87214615 508.50709828 110.98242188 517.92724609 C105.69487149 526.4194226 100.61316439 535.03132811 95.52050781 543.64111328 C89.90626216 553.13101385 84.24037259 562.58586991 78.5 572 C72.42802627 581.95801555 66.44090281 591.96325866 60.5 602 C54.51098893 612.11575766 48.48434996 622.2064085 42.375 632.25 C42.02725525 632.8217395 41.6795105 633.393479 41.32122803 633.98254395 C38.5364429 638.55961348 35.74745795 643.13411982 32.95825195 647.70849609 C30.51182882 651.72111141 28.06714645 655.73478024 25.625 659.75 C25.27741638 660.32141724 24.92983276 660.89283447 24.57171631 661.48156738 C18.40591592 671.62480945 12.33884619 681.82510653 6.2925415 692.03991699 C0.41372908 701.96972829 -5.53280423 711.85496971 -11.54098511 721.70697021 C-17.28919783 731.13619914 -22.94118206 740.61965675 -28.5625 750.125 C-34.91483757 760.86566739 -41.37191233 771.52949224 -47.94384766 782.13769531 C-53.20836004 790.65870145 -58.33870301 799.25411924 -63.4375 807.875 C-70.08788347 819.11912898 -76.7977536 830.3231487 -83.60327148 841.47412109 C-90.8017391 853.27755262 -97.88593267 865.14322112 -105 877 C-50.88 877 3.24 877 59 877 C59 925.18 59 973.36 59 1023 C-84.22 1023 -227.44 1023 -375 1023 C-375 974.82 -375 926.64 -375 877 C-331.0625 878.25 -331.0625 878.25 -317.29321289 878.86425781 C-298.37598163 880.10913841 -298.37598163 880.10913841 -281.49603271 873.39770508 C-275.58306462 867.21669656 -272.30094455 859.30214993 -269.33444214 851.39929199 C-267.60956604 847.00542781 -265.32873744 843.20199108 -262.78125 839.25 C-262.05344586 838.03188105 -261.33118606 836.8104293 -260.61499023 835.58544922 C-253.27990956 823.14816043 -245.85484766 810.76915288 -238.34375 798.4375 C-233.19339111 789.97959182 -228.08726738 781.4959906 -223 773 C-217.22342233 763.35282679 -211.41176035 753.72826326 -205.5625 744.125 C-199.06060193 733.44915618 -192.65913802 722.71636857 -186.29226685 711.95953369 C-180.07543853 701.45883388 -173.77581979 691.01228416 -167.42285156 680.59350586 C-161.96058422 671.62503614 -156.59602664 662.60063956 -151.25 653.5625 C-145.59402041 644.00087977 -139.87214615 634.49290172 -133.98242188 625.07275391 C-128.69487149 616.5805774 -123.61316439 607.96867189 -118.52050781 599.35888672 C-112.90626216 589.86898615 -107.24037259 580.41413009 -101.5 571 C-95.42802627 561.04198445 -89.44090281 551.03674134 -83.5 541 C-77.51098893 530.88424234 -71.48434996 520.7935915 -65.375 510.75 C-64.85338287 509.89239075 -64.85338287 509.89239075 -64.32122803 509.01745605 C-61.5364429 504.44038652 -58.74745795 499.86588018 -55.95825195 495.29150391 C-53.51182882 491.27888859 -51.06714645 487.26521976 -48.625 483.25 C-48.27741638 482.67858276 -47.92983276 482.10716553 -47.57171631 481.51843262 C-41.40591592 471.37519055 -35.33884619 461.17489347 -29.2925415 450.96008301 C-23.07563009 440.45919392 -16.77592667 430.01245943 -10.42285156 419.59350586 C-4.96058422 410.62503614 0.40397336 401.60063956 5.75 392.5625 C11.40597959 383.00087977 17.12785385 373.49290172 23.01757812 364.07275391 C28.30512851 355.5805774 33.38683561 346.96867189 38.47949219 338.35888672 C44.09373784 328.86898615 49.75962741 319.41413009 55.5 310 C61.57197373 300.04198445 67.55909719 290.03674134 73.5 280 C79.48901107 269.88424234 85.51565004 259.7935915 91.625 249.75 C92.14661713 248.89239075 92.14661713 248.89239075 92.67877197 248.01745605 C95.4635571 243.44038652 98.25254205 238.86588018 101.04174805 234.29150391 C103.48817118 230.27888859 105.93285355 226.26521976 108.375 222.25 C108.72258362 221.67858276 109.07016724 221.10716553 109.42828369 220.51843262 C115.58797793 210.38523567 121.64992992 200.1955382 127.68933105 189.99029541 C134.3249631 178.77946174 141.04848232 167.62463249 147.83398438 156.50390625 C148.83268555 154.86615234 148.83268555 154.86615234 149.8515625 153.1953125 C150.43760254 152.23641113 151.02364258 151.27750977 151.62744141 150.28955078 C152.99265193 148.07829711 152.99265193 148.07829711 154 146 C103.18 146 52.36 146 0 146 C0 97.82 0 49.64 0 0 Z " fill="#862334" transform="translate(462,90)"/>
<path d="M0 0 C165 0 330 0 500 0 C500 73.92 500 147.84 500 224 C459.08 224 418.16 224 376 224 C385.79575241 240.71040116 395.59188797 257.37603641 405.68359375 273.90234375 C410.16067898 281.24532415 414.58243455 288.62111142 419 296 C424.43172646 305.07170112 429.89034849 314.12594528 435.390625 323.15625 C442.24205469 334.40486591 448.99906212 345.70616025 455.70773315 357.04046631 C461.92456147 367.54116612 468.22418021 377.98771584 474.57714844 388.40649414 C480.03941578 397.37496386 485.40397336 406.39936044 490.75 415.4375 C495.91952803 424.17675781 501.11676372 432.88993966 506.5 441.5 C512.31002009 450.79266727 517.90037584 460.20890586 523.47949219 469.64111328 C529.76645248 480.26812031 536.13416936 490.84107109 542.56298828 501.3828125 C548.96528135 511.89411008 555.24321291 522.47818089 561.49414062 533.08007812 C567.9008521 545.21518132 567.9008521 545.21518132 576 556 C576.44166504 555.24195068 576.88333008 554.48390137 577.33837891 553.70288086 C586.47382931 538.03654019 595.70365871 522.44005949 605.17822266 506.97558594 C608.52423914 501.51039579 611.85836559 496.03798482 615.1875 490.5625 C615.54021973 489.98249237 615.89293945 489.40248474 616.25634766 488.80490112 C622.47869068 478.5663153 628.60391178 468.27167599 634.70663452 457.9614563 C640.58572329 448.03118824 646.5325263 438.14548603 652.54098511 428.29302979 C658.28919783 418.86380086 663.94118206 409.38034325 669.5625 399.875 C675.91483757 389.13433261 682.37191233 378.47050776 688.94384766 367.86230469 C694.62599703 358.66532192 700.14804479 349.37823573 705.65087891 340.07324219 C711.20766696 330.67839875 716.81689157 321.31895832 722.5 312 C728.571916 302.04195102 734.55921868 292.0368135 740.5 282 C746.67420452 271.57039412 752.89195315 261.16936966 759.1875 250.8125 C759.8578125 249.70970703 760.528125 248.60691406 761.21875 247.47070312 C765.78868931 239.96556231 770.39466556 232.48366846 775 225 C713.62 224.505 713.62 224.505 651 224 C651 150.41 651 76.82 651 1 C816 1 981 1 1151 1 C1151 74.59 1151 148.18 1151 224 C1110.08 224 1069.16 224 1027 224 C1036.76797832 240.66302183 1046.54789582 257.26847303 1056.60546875 273.75 C1061.36412663 281.56580952 1066.02658545 289.43815338 1070.6875 297.3125 C1077.77681158 309.28542165 1084.95078005 321.20212996 1092.21044922 333.07275391 C1095.5427945 338.5236161 1098.86801838 343.9787969 1102.1875 349.4375 C1102.7168515 350.30791931 1102.7168515 350.30791931 1103.25689697 351.19592285 C1109.47904549 361.43423998 1115.60408025 371.72860862 1121.70663452 382.0385437 C1127.58572329 391.96881176 1133.5325263 401.85451397 1139.54098511 411.70697021 C1145.28919783 421.13619914 1150.94118206 430.61965675 1156.5625 440.125 C1162.28805175 449.80588461 1168.07650603 459.43848977 1174 469 C1180.34204379 479.23711967 1186.52112331 489.56167411 1192.65087891 499.92675781 C1198.20766696 509.32160125 1203.81689157 518.68104168 1209.5 528 C1215.571917 537.9580506 1221.55909669 547.96325782 1227.5 558 C1233.48901107 568.11575766 1239.51565004 578.2064085 1245.625 588.25 C1245.97274475 588.8217395 1246.3204895 589.393479 1246.67877197 589.98254395 C1249.11685807 593.98977938 1251.55804334 597.99512241 1254 602 C1256.79385607 606.58200252 1259.58623693 611.16489554 1262.375 615.75 C1262.72258362 616.32141724 1263.07016724 616.89283447 1263.42828369 617.48156738 C1269.59408408 627.62480945 1275.66115381 637.82510653 1281.7074585 648.03991699 C1287.2466722 657.39611734 1292.83974769 666.71654964 1298.5 676 C1304.57166203 685.95820857 1310.55909433 695.96325383 1316.5 706 C1322.48901107 716.11575766 1328.51565004 726.2064085 1334.625 736.25 C1334.97274475 736.8217395 1335.3204895 737.393479 1335.67877197 737.98254395 C1338.11685807 741.98977938 1340.55804334 745.99512241 1343 750 C1345.79385607 754.58200252 1348.58623693 759.16489554 1351.375 763.75 C1351.72258362 764.32141724 1352.07016724 764.89283447 1352.42828369 765.48156738 C1358.59408408 775.62480945 1364.66115381 785.82510653 1370.7074585 796.03991699 C1376.91783922 806.52977519 1383.21024553 816.96596331 1389.55737305 827.37353516 C1396.04813307 838.03523913 1402.41574098 848.76882135 1408.7578125 859.51953125 C1409.14490891 860.17434479 1409.53200531 860.82915833 1409.93083191 861.5038147 C1410.97900762 863.27701777 1412.02533846 865.05131102 1413.0715332 866.82568359 C1414.96201712 869.93747899 1416.98031229 872.97046843 1419 876 C1454.31 876.33 1489.62 876.66 1526 877 C1526 950.59 1526 1024.18 1526 1100 C1357.37 1100 1188.74 1100 1015 1100 C1015 1026.41 1015 952.82 1015 877 C1059.22 877 1103.44 877 1149 877 C1139.20424759 860.28959884 1129.40811203 843.62396359 1119.31640625 827.09765625 C1114.83932102 819.75467585 1110.41756545 812.37888858 1106 805 C1100.56827354 795.92829888 1095.10965151 786.87405472 1089.609375 777.84375 C1082.75794531 766.59513409 1076.00093788 755.29383975 1069.29226685 743.95953369 C1063.75313901 734.60352196 1058.16019813 725.28324257 1052.5 716 C1046.36578136 705.9376343 1040.31608221 695.82833407 1034.3125 685.6875 C1027.2229231 673.71473285 1020.04922275 661.79787463 1012.78955078 649.92724609 C1009.4572055 644.4763839 1006.13198162 639.0212031 1002.8125 633.5625 C1002.459599 632.98222046 1002.106698 632.40194092 1001.74310303 631.80407715 C995.52095451 621.56576002 989.39591975 611.27139138 983.29336548 600.9614563 C977.75387616 591.60479984 972.16058286 582.28387355 966.5 573 C960.36578136 562.9376343 954.31608221 552.82833407 948.3125 542.6875 C941.2409367 530.74515393 934.08477876 518.85921785 926.84228516 507.01953125 C924.75631088 503.60059011 922.67995935 500.17591623 920.60546875 496.75 C919.84326259 495.49186145 919.08105555 494.23372343 918.31884766 492.97558594 C917.20891124 491.1433194 916.09929846 489.31086197 914.99090576 487.47766113 C910.42230934 479.92253208 905.77547943 472.42623958 901 465 C900.27018921 466.23411621 900.27018921 466.23411621 899.52563477 467.49316406 C887.8007058 487.31265777 875.94656073 507.04733255 863.95825195 526.70849609 C861.51182882 530.72111141 859.06714645 534.73478024 856.625 538.75 C856.27741638 539.32141724 855.92983276 539.89283447 855.57171631 540.48156738 C849.40591592 550.62480945 843.33884619 560.82510653 837.2925415 571.03991699 C831.41334244 580.97038137 825.46565015 590.85577529 819.45800781 600.70898438 C813.73547972 610.09842711 808.10069847 619.53743989 802.5 629 C795.78241422 640.34886724 788.99957158 651.65480166 782.1328125 662.9140625 C776.03638486 672.91270251 770.02587606 682.95687323 764 693 C795.68 693 827.36 693 860 693 C860 766.92 860 840.84 860 917 C672.23 917 484.46 917 291 917 C291 843.08 291 769.16 291 693 C338.52 692.505 338.52 692.505 387 692 C376.52618662 674.25671484 376.52618662 674.25671484 365.875 656.625 C359.6752179 646.46042612 353.56430128 636.24590875 347.5 626 C341.51106967 615.88419527 335.4843493 605.79359041 329.375 595.75 C329.02725525 595.1782605 328.6795105 594.606521 328.32122803 594.01745605 C325.88314193 590.01022062 323.44195666 586.00487759 321 582 C318.20614393 577.41799748 315.41376307 572.83510446 312.625 568.25 C312.27741638 567.67858276 311.92983276 567.10716553 311.57171631 566.51843262 C305.40833622 556.37917213 299.34390814 546.18273822 293.29959106 535.97216797 C286.91929857 525.19643282 280.46225662 514.47015495 273.94604492 503.77612305 C269.22987811 496.03497692 264.5483974 488.27432506 259.92797852 480.47558594 C256.78467406 475.20113858 253.44755264 470.08048583 250 465 C249.49774902 465.84892822 248.99549805 466.69785645 248.47802734 467.57250977 C238.67776892 484.13197761 228.82898869 500.65680032 218.78955078 517.07275391 C215.4572055 522.5236161 212.13198162 527.9787969 208.8125 533.4375 C208.459599 534.01777954 208.106698 534.59805908 207.74310303 535.19592285 C201.52095451 545.43423998 195.39591975 555.72860862 189.29336548 566.0385437 C183.75387616 575.39520016 178.16058286 584.71612645 172.5 594 C166.36578136 604.0623657 160.31608221 614.17166593 154.3125 624.3125 C147.2229231 636.28526715 140.04922275 648.20212537 132.78955078 660.07275391 C129.4572055 665.5236161 126.13198162 670.9787969 122.8125 676.4375 C122.459599 677.01777954 122.106698 677.59805908 121.74310303 678.19592285 C115.52095451 688.43423998 109.39591975 698.72860862 103.29336548 709.0385437 C97.41427671 718.96881176 91.4674737 728.85451397 85.45901489 738.70697021 C79.71080217 748.13619914 74.05881794 757.61965675 68.4375 767.125 C62.08516243 777.86566739 55.62808767 788.52949224 49.05615234 799.13769531 C43.37915496 808.3263392 37.8613387 817.60458152 32.36422729 826.90158081 C25.7996771 838.00260196 19.15028316 849.04877097 12.42993164 860.05615234 C11.77371826 861.13203613 11.11750488 862.20791992 10.44140625 863.31640625 C9.87107666 864.24912354 9.30074707 865.18184082 8.71313477 866.14282227 C6.76020807 869.3999266 4.88419508 872.70265861 3 876 C47.22 876.33 91.44 876.66 137 877 C137 950.59 137 1024.18 137 1100 C-31.63 1100 -200.26 1100 -374 1100 C-374 1026.41 -374 952.82 -374 877 C-338.69 877 -303.38 877 -267 877 C-266.01 874.525 -266.01 874.525 -265 872 C-263.77996677 869.80520066 -262.53757924 867.64764389 -261.24609375 865.49609375 C-260.87368057 864.86945328 -260.5012674 864.24281281 -260.11756897 863.59718323 C-258.89452248 861.5417596 -257.66614179 859.48958311 -256.4375 857.4375 C-255.57533266 855.99164865 -254.7133561 854.54568352 -253.8515625 853.09960938 C-247.76526864 842.89894864 -241.61000217 832.74111977 -235.42651367 822.59912109 C-229.96267977 813.62898773 -224.5971639 804.60256224 -219.25 795.5625 C-213.59402041 786.00087977 -207.87214615 776.49290172 -201.98242188 767.07275391 C-196.69487149 758.5805774 -191.61316439 749.96867189 -186.52050781 741.35888672 C-180.90626216 731.86898615 -175.24037259 722.41413009 -169.5 713 C-163.42802627 703.04198445 -157.44090281 693.03674134 -151.5 683 C-145.51098893 672.88424234 -139.48434996 662.7935915 -133.375 652.75 C-133.02725525 652.1782605 -132.6795105 651.606521 -132.32122803 651.01745605 C-129.5364429 646.44038652 -126.74745795 641.86588018 -123.95825195 637.29150391 C-121.51182882 633.27888859 -119.06714645 629.26521976 -116.625 625.25 C-116.27741638 624.67858276 -115.92983276 624.10716553 -115.57171631 623.51843262 C-109.40591592 613.37519055 -103.33884619 603.17489347 -97.2925415 592.96008301 C-91.41334244 583.02961863 -85.46565015 573.14422471 -79.45800781 563.29101562 C-73.7354775 553.90156926 -68.10094959 544.46241406 -62.5 535 C-56.51098893 524.88424234 -50.48434996 514.7935915 -44.375 504.75 C-43.85338287 503.89239075 -43.85338287 503.89239075 -43.32122803 503.01745605 C-40.5364429 498.44038652 -37.74745795 493.86588018 -34.95825195 489.29150391 C-32.51182882 485.27888859 -30.06714645 481.26521976 -27.625 477.25 C-27.27741638 476.67858276 -26.92983276 476.10716553 -26.57171631 475.51843262 C-20.40591592 465.37519055 -14.33884619 455.17489347 -8.2925415 444.96008301 C-2.41372908 435.03027171 3.53280423 425.14503029 9.54098511 415.29302979 C15.28919783 405.86380086 20.94118206 396.38034325 26.5625 386.875 C32.91483757 376.13433261 39.37191233 365.47050776 45.94384766 354.86230469 C51.62599703 345.66532192 57.14804479 336.37823573 62.65087891 327.07324219 C68.20766696 317.67839875 73.81689157 308.31895832 79.5 299 C86.2943923 287.8570772 92.98531327 276.65563086 99.61523438 265.4140625 C107.62373307 251.86677345 115.83006888 238.45635715 124 225 C83.08 224.67 42.16 224.34 0 224 C0 150.08 0 76.16 0 0 Z M39 39 C39 87.18 39 135.36 39 185 C89.82 185 140.64 185 193 185 C183.23730127 201.65401548 173.46411403 218.25116628 163.41015625 234.72265625 C158.55815212 242.69054396 153.81183233 250.7206564 149.0625 258.75 C144.10360768 267.13219293 139.13382522 275.49685482 133.90869141 283.71679688 C129.00148878 291.4936237 124.37363629 299.44183862 119.69189453 307.35546875 C114.02022705 316.94038748 108.29841103 326.49123514 102.5 336 C96.36561625 346.06226354 90.31608073 356.17166841 84.3125 366.3125 C77.2229231 378.28526715 70.04922275 390.20212537 62.78955078 402.07275391 C59.4572055 407.5236161 56.13198162 412.9787969 52.8125 418.4375 C52.459599 419.01777954 52.106698 419.59805908 51.74310303 420.19592285 C45.52095451 430.43423998 39.39591975 440.72860862 33.29336548 451.0385437 C27.07617746 461.53988942 20.77620459 471.98708479 14.42285156 482.40649414 C8.96058422 491.37496386 3.59602664 500.39936044 -1.75 509.4375 C-7.40597959 518.99912023 -13.12785385 528.50709828 -19.01757812 537.92724609 C-24.30512851 546.4194226 -29.38683561 555.03132811 -34.47949219 563.64111328 C-40.09373784 573.13101385 -45.75962741 582.58586991 -51.5 592 C-57.57197373 601.95801555 -63.55909719 611.96325866 -69.5 622 C-75.48901107 632.11575766 -81.51565004 642.2064085 -87.625 652.25 C-87.97274475 652.8217395 -88.3204895 653.393479 -88.67877197 653.98254395 C-91.4635571 658.55961348 -94.25254205 663.13411982 -97.04174805 667.70849609 C-99.48817118 671.72111141 -101.93285355 675.73478024 -104.375 679.75 C-104.89637543 680.60712585 -104.89637543 680.60712585 -105.42828369 681.48156738 C-111.59408408 691.62480945 -117.66115381 701.82510653 -123.7074585 712.03991699 C-129.92436991 722.54080608 -136.22407333 732.98754057 -142.57714844 743.40649414 C-148.03941578 752.37496386 -153.40397336 761.39936044 -158.75 770.4375 C-164.40597959 779.99912023 -170.12785385 789.50709828 -176.01757812 798.92724609 C-181.30512851 807.4194226 -186.38683561 816.03132811 -191.47949219 824.64111328 C-197.76862834 835.27179822 -204.13878203 845.84826105 -210.56958008 856.39379883 C-217.24085723 867.3471741 -223.78510581 878.37558154 -230.28350735 889.43232346 C-231.02386569 890.67920037 -231.77297614 891.92096677 -232.5347681 893.15486526 C-234.54515211 896.42556851 -236.34046196 899.66911806 -237.90391541 903.1774292 C-242.89828466 913.65187067 -242.89828466 913.65187067 -248.07956505 915.903862 C-254.19566791 917.33400425 -260.43049766 916.98680268 -266.6640625 916.78125 C-268.44099919 916.77759354 -270.21796566 916.78115204 -271.99487305 916.79199219 C-278.53896467 916.78184412 -285.08224625 916.63270842 -291.625 916.5 C-306.26875 916.335 -320.9125 916.17 -336 916 C-336 964.18 -336 1012.36 -336 1062 C-192.78 1062 -49.56 1062 98 1062 C98 1013.82 98 965.64 98 916 C43.88 916 -10.24 916 -66 916 C-55.5124793 898.33680724 -45.02513533 880.70979959 -34.33984375 863.171875 C-29.51464669 855.23721168 -24.79093267 847.24255259 -20.0625 839.25 C-15.1034224 830.86791128 -10.1338297 822.50315222 -4.90869141 814.28320312 C-0.00148878 806.5063763 4.62636371 798.55816138 9.30810547 790.64453125 C14.97977317 781.05961216 20.7016133 771.50877988 26.5 762 C32.57203055 752.04201956 38.55909769 742.03674049 44.5 732 C50.48901107 721.88424234 56.51565004 711.7935915 62.625 701.75 C62.97274475 701.1782605 63.3204895 700.606521 63.67877197 700.01745605 C66.4635571 695.44038652 69.25254205 690.86588018 72.04174805 686.29150391 C74.48817118 682.27888859 76.93285355 678.26521976 79.375 674.25 C79.72258362 673.67858276 80.07016724 673.10716553 80.42828369 672.51843262 C86.59408408 662.37519055 92.66115381 652.17489347 98.7074585 641.96008301 C104.92436991 631.45919392 111.22407333 621.01245943 117.57714844 610.59350586 C123.03941578 601.62503614 128.40397336 592.60063956 133.75 583.5625 C139.40597959 574.00087977 145.12785385 564.49290172 151.01757812 555.07275391 C156.30512851 546.5805774 161.38683561 537.96867189 166.47949219 529.35888672 C172.09373784 519.86898615 177.75962741 510.41413009 183.5 501 C189.57197373 491.04198445 195.55909719 481.03674134 201.5 471 C209.52297114 457.4487758 217.65789148 443.97032444 225.85449219 430.5234375 C228.12941627 426.78952912 230.39717348 423.05129041 232.6640625 419.3125 C233.04974396 418.67652893 233.43542542 418.04055786 233.83279419 417.38531494 C235.33255689 414.91225526 236.83231922 412.43919568 238.33135986 409.96569824 C242.17941426 403.61706835 246.04609984 397.28332972 250 391 C253.0559117 394.64913561 255.5412238 398.40097612 257.94921875 402.50390625 C258.31884735 403.13063736 258.68847595 403.75736847 259.06930542 404.40309143 C259.86398967 405.75111498 260.65701085 407.10012007 261.44851685 408.45001221 C263.57433695 412.07457239 265.71342381 415.69129122 267.8515625 419.30859375 C268.28588089 420.04396362 268.72019928 420.7793335 269.16767883 421.5369873 C273.2452034 428.43286186 277.39317235 435.28435092 281.5625 442.125 C287.79660124 452.35737263 293.98110311 462.61819152 300.13653564 472.89807129 C305.19031087 481.33651488 310.2739801 489.75578823 315.390625 498.15625 C322.24205469 509.40486591 328.99906212 520.70616025 335.70773315 532.04046631 C341.92456147 542.54116612 348.22418021 552.98771584 354.57714844 563.40649414 C360.03941578 572.37496386 365.40397336 581.39936044 370.75 590.4375 C375.91952803 599.17675781 381.11676372 607.88993966 386.5 616.5 C392.31002009 625.79266727 397.90037584 635.20890586 403.47949219 644.64111328 C409.09373721 654.13101278 414.75955556 663.58591427 420.5 673 C427.56078006 684.58071433 434.5075547 696.22633231 441.40625 707.90429688 C441.78611557 708.54645645 442.16598114 709.18861603 442.55735779 709.85023499 C443.57837663 711.57657098 444.5979665 713.3037519 445.61743164 715.03100586 C449.03034342 720.71639441 452.52465272 726.35256067 456 732 C414.42 732 372.84 732 330 732 C330 780.18 330 828.36 330 878 C492.03 878 654.06 878 821 878 C821 829.82 821 781.64 821 732 C779.75 731.67 738.5 731.34 696 731 C702.66102611 719.89828982 709.32190413 708.80239404 716.0625 697.75 C722.68980249 686.86733639 729.21611801 675.92728848 735.70608521 664.96228027 C741.92346673 654.4606672 748.22362437 644.01319571 754.57714844 633.59350586 C760.03941578 624.62503614 765.40397336 615.60063956 770.75 606.5625 C776.40597959 597.00087977 782.12785385 587.49290172 788.01757812 578.07275391 C793.30512851 569.5805774 798.38683561 560.96867189 803.47949219 552.35888672 C809.09373784 542.86898615 814.75962741 533.41413009 820.5 524 C826.57197373 514.04198445 832.55909719 504.03674134 838.5 494 C846.54191914 480.41677164 854.69573237 466.90532876 862.91162109 453.42675781 C868.90711393 443.59057226 874.88589805 433.74425449 880.85388184 423.89135742 C882.06746552 421.88866645 883.28223698 419.88669877 884.49707031 417.88476562 C886.61479572 414.39376183 888.72748403 410.8997511 890.83694458 407.40374756 C891.64992192 406.05796934 892.46442173 404.7131096 893.28048706 403.36920166 C894.41120407 401.50642253 895.53634929 399.64039111 896.66015625 397.7734375 C897.30605713 396.70528809 897.95195801 395.63713867 898.61743164 394.53662109 C900.15952461 392.18880662 900.15952461 392.18880662 900 390 C903.01127633 392.64406175 904.86134585 395.88417375 906.8515625 399.30859375 C907.22265137 399.93824539 907.59374023 400.56789703 907.97607422 401.21662903 C908.77707712 402.5765235 909.57610009 403.93758573 910.37335205 405.29968262 C912.50997158 408.94903335 914.6621192 412.58921584 916.8125 416.23046875 C917.46830551 417.34217941 917.46830551 417.34217941 918.13735962 418.47634888 C922.24584962 425.43405263 926.42299724 432.34847198 930.625 439.25 C931.32585251 440.40193311 932.02669884 441.55386997 932.72753906 442.70581055 C934.81669764 446.13822058 936.90811559 449.56925074 939 453 C941.79385607 457.58200252 944.58623693 462.16489554 947.375 466.75 C947.72258362 467.32141724 948.07016724 467.89283447 948.42828369 468.48156738 C954.59408408 478.62480945 960.66115381 488.82510653 966.7074585 499.03991699 C972.24667174 508.39611656 977.83969502 517.7165822 983.5 527 C989.63421864 537.0623657 995.68391779 547.17166593 1001.6875 557.3125 C1008.7770769 569.28526715 1015.95077725 581.20212537 1023.21044922 593.07275391 C1026.5427945 598.5236161 1029.86801838 603.9787969 1033.1875 609.4375 C1033.540401 610.01777954 1033.893302 610.59805908 1034.25689697 611.19592285 C1040.47904549 621.43423998 1046.60408025 631.72860862 1052.70663452 642.0385437 C1058.92382254 652.53988942 1065.22379541 662.98708479 1071.57714844 673.40649414 C1077.03941578 682.37496386 1082.40397336 691.39936044 1087.75 700.4375 C1092.91952803 709.17675781 1098.11676372 717.88993966 1103.5 726.5 C1109.31002009 735.79266727 1114.90037584 745.20890586 1120.47949219 754.64111328 C1126.09373784 764.13101385 1131.75962741 773.58586991 1137.5 783 C1143.57197373 792.95801555 1149.55909719 802.96325866 1155.5 813 C1163.54191914 826.58322836 1171.69573237 840.09467124 1179.91162109 853.57324219 C1192.3607694 873.99727339 1204.69354248 894.48923746 1217 915 C1162.88 915.33 1108.76 915.66 1053 916 C1053 964.18 1053 1012.36 1053 1062 C1196.22 1062 1339.44 1062 1487 1062 C1487 1013.82 1487 965.64 1487 916 C1457.3 916 1427.6 916 1397 916 C1396.34 914.35 1395.68 912.7 1395 911 C1393.77996575 908.80519883 1392.53757731 906.64764698 1391.24609375 904.49609375 C1390.87322739 903.86868286 1390.50036102 903.24127197 1390.11619568 902.59484863 C1388.89362011 900.54019503 1387.66571324 898.48878772 1386.4375 896.4375 C1385.58266263 895.00409641 1384.72800997 893.57058264 1383.87353516 892.13696289 C1376.22583348 879.32072709 1368.47727962 866.56616391 1360.71386719 853.81982422 C1357.94035182 849.25656175 1355.2013963 844.67302485 1352.4609375 840.08984375 C1350.43870237 836.71916056 1348.39626837 833.36100158 1346.3515625 830.00390625 C1338.25192463 816.7039327 1330.22639155 803.3645599 1322.29473877 789.96365356 C1316.75478364 780.60627274 1311.16113738 771.28454452 1305.5 762 C1298.43938198 750.41918483 1291.492447 738.77367058 1284.59375 727.09570312 C1280.44319281 720.07517056 1276.23825039 713.09424201 1271.94995117 706.15649414 C1268.67096819 700.84862248 1265.42808098 695.5188789 1262.1875 690.1875 C1261.65116943 689.305177 1261.65116943 689.305177 1261.10400391 688.4050293 C1254.76342341 677.9673516 1248.51730446 667.47531737 1242.29602051 656.96621704 C1236.38940852 646.99129368 1230.42096903 637.05681482 1224.390625 627.15625 C1218.50671839 617.49610482 1212.67424274 607.80621883 1206.86346436 598.10192871 C1201.80968913 589.66348512 1196.7260199 581.24421177 1191.609375 572.84375 C1184.75794531 561.59513409 1178.00093788 550.29383975 1171.29226685 538.95953369 C1165.07543853 528.45883388 1158.77581979 518.01228416 1152.42285156 507.59350586 C1146.96058455 498.62503668 1141.59598884 489.60066155 1136.25 480.5625 C1130.52466602 470.88329675 1124.73085371 461.25882591 1118.77148438 451.72119141 C1114.14210048 444.28819891 1109.68299819 436.7587965 1105.23492432 429.21624756 C1100.11775267 420.54140865 1094.93077432 411.91179216 1089.6875 403.3125 C1083.55340241 393.25010761 1077.50230904 383.14153304 1071.5 373 C1063.33850189 359.21115237 1055.0487342 345.50440521 1046.71386719 331.81982422 C1043.94035182 327.25656175 1041.2013963 322.67302485 1038.4609375 318.08984375 C1036.43870237 314.71916056 1034.39626837 311.36100158 1032.3515625 308.00390625 C1024.25192463 294.7039327 1016.22639155 281.3645599 1008.29473877 267.96365356 C1002.08226922 257.47034773 995.78830196 247.03037782 989.43823242 236.61987305 C985.56091387 230.25554292 981.72275989 223.86966065 977.92578125 217.45703125 C977.49864838 216.73579071 977.0715155 216.01455017 976.63143921 215.27145386 C974.5560789 211.76481057 972.48462579 208.25591977 970.41796875 204.74414062 C969.66019298 203.46091581 968.90238216 202.17771169 968.14453125 200.89453125 C967.15996948 199.22161011 967.15996948 199.22161011 966.15551758 197.51489258 C963.55248002 193.270252 960.76198246 189.14297369 958 185 C1009.15 185 1060.3 185 1113 185 C1113 136.82 1113 88.64 1113 39 C973.41 39 833.82 39 690 39 C690 87.18 690 135.36 690 185 C740.82 185 791.64 185 844 185 C833.50861295 202.6697045 823.01702349 220.3030504 812.328125 237.84765625 C807.57006736 245.6721185 802.91209476 253.55563448 798.25 261.4375 C792.59402041 270.99912023 786.87214615 280.50709828 780.98242188 289.92724609 C775.69487149 298.4194226 770.61316439 307.03132811 765.52050781 315.64111328 C759.56718447 325.70416539 753.54808578 335.72291707 747.46011353 345.70504761 C741.71155002 355.1349257 736.05919295 364.61902263 730.4375 374.125 C724.08516243 384.86566739 717.62808767 395.52949224 711.05615234 406.13769531 C705.37400297 415.33467808 699.85195521 424.62176427 694.34912109 433.92675781 C688.45306258 443.89520471 682.48960997 453.81869008 676.45928955 463.7064209 C670.71099803 473.13583957 665.05892121 482.61948213 659.4375 492.125 C653.08516243 502.86566739 646.62808767 513.52949224 640.05615234 524.13769531 C634.37400297 533.33467808 628.85195521 542.62176427 623.34912109 551.92675781 C617.79230275 561.32165246 612.1818919 570.68023013 606.5 580 C600.57158876 589.73520147 594.68189302 599.49255264 588.84667969 609.28393555 C587.99816711 610.70688791 587.14841708 612.12910317 586.29736328 613.55053711 C585.11258697 615.53025557 583.93260751 617.51275385 582.75390625 619.49609375 C582.40264175 620.08128281 582.05137726 620.66647186 581.68946838 621.26939392 C579.81990018 624.4289766 578.26093768 627.55102373 577 631 C573.78306185 628.03581182 571.66215028 625.03722408 569.48828125 621.25 C569.16318069 620.68866867 568.83808014 620.12733734 568.50312805 619.54899597 C567.801744 618.33701567 567.10305332 617.12347346 566.40679932 615.90853882 C564.51814107 612.61457936 562.60786758 609.33318468 560.69921875 606.05078125 C560.30730347 605.37582108 559.91538818 604.7008609 559.51159668 604.00544739 C555.63650873 597.34555132 551.64250559 590.76237431 547.625 584.1875 C541.50838568 574.16862844 535.47811232 564.1021083 529.5 554 C522.03579088 541.3891205 514.46933238 528.84432385 506.84765625 516.328125 C503.06298472 510.11157702 499.31653378 503.87284285 495.58056641 497.62695312 C492.10522948 491.82420421 488.59602158 486.04266044 485.078125 480.265625 C477.73739411 468.21066327 470.48292012 456.10833588 463.29391479 443.96228027 C457.75423527 434.60535555 452.16080665 425.28412144 446.5 416 C440.30233382 405.83407547 434.19123077 395.61988445 428.125 385.375 C421.98963269 375.01529633 415.80158162 364.6931404 409.49511719 354.43652344 C406.31701559 349.25731802 403.15683464 344.06718798 400 338.875 C399.64178162 338.28585815 399.28356323 337.69671631 398.91448975 337.08972168 C392.63597562 326.75634113 386.45299206 316.36788904 380.29418945 305.96282959 C374.07672483 295.46102724 367.7764825 285.01337099 361.42285156 274.59350586 C355.96058488 265.62503722 350.59595098 256.60068357 345.25 247.5625 C339.46587705 237.7835663 333.61146584 228.05992521 327.59350586 218.42236328 C323.57919463 211.97845681 319.67564593 205.47307422 315.8125 198.9375 C314.98226318 197.53443604 314.98226318 197.53443604 314.13525391 196.10302734 C311.97645075 192.43625165 309.9045007 188.8090014 308 185 C358.82 185 409.64 185 462 185 C462 136.82 462 88.64 462 39 C322.41 39 182.82 39 39 39 Z " fill="#FAB73B" transform="translate(423,51)"/>
</svg>
