<?xml version="1.0" encoding="UTF-8"?>
<!DOCTYPE svg PUBLIC "-//W3C//DTD SVG 1.1//EN" "http://www.w3.org/Graphics/SVG/1.1/DTD/svg11.dtd">
<svg xmlns="http://www.w3.org/2000/svg" version="1.1" width="798px" height="657px" style="shape-rendering:geometricPrecision; text-rendering:geometricPrecision; image-rendering:optimizeQuality; fill-rule:evenodd; clip-rule:evenodd" xmlns:xlink="http://www.w3.org/1999/xlink">
<g><path style="opacity:0.95" fill="#fcfcfd" d="M 138.5,210.5 C 102.599,201.412 87.7658,178.412 94,141.5C 99.2272,122.214 111.061,108.714 129.5,101C 137.823,97.419 146.49,95.0857 155.5,94C 181.595,91.0721 207.428,92.5721 233,98.5C 234.607,98.2308 235.774,97.3974 236.5,96C 246.494,95.5002 256.494,95.3335 266.5,95.5C 266.5,117.167 266.5,138.833 266.5,160.5C 253.526,161.59 240.526,161.756 227.5,161C 222.153,154.158 215.153,150.158 206.5,149C 191.859,146.057 177.192,146.057 162.5,149C 160,149.375 157.667,150.208 155.5,151.5C 154.167,152.167 154.167,152.833 155.5,153.5C 156.795,154.098 158.128,154.598 159.5,155C 181.971,156.978 204.304,159.978 226.5,164C 262.643,174.466 278.143,198.299 273,235.5C 266.31,260.524 250.477,276.691 225.5,284C 193.15,291.398 161.317,289.565 130,278.5C 127.46,279.207 126.293,280.873 126.5,283.5C 116.167,283.5 105.833,283.5 95.5,283.5C 95.5,259.167 95.5,234.833 95.5,210.5C 109.833,210.5 124.167,210.5 138.5,210.5 Z M 138.5,210.5 C 160.694,214.318 183.027,217.151 205.5,219C 209.464,219.135 212.13,220.968 213.5,224.5C 212.76,226.894 211.093,228.394 208.5,229C 191.161,233.382 173.828,233.382 156.5,229C 147.612,225.612 141.612,219.445 138.5,210.5 Z"/></g>
<g><path style="opacity:0.953" fill="#fdfdfe" d="M 512.5,95.5 C 539.178,95.2845 565.844,95.6178 592.5,96.5C 592.5,106.833 592.5,117.167 592.5,127.5C 587.938,127.361 584.771,129.361 583,133.5C 582.068,158.865 582.401,184.198 584,209.5C 587.13,222.575 595.464,228.908 609,228.5C 624.011,228.823 632.011,221.489 633,206.5C 633.667,181.833 633.667,157.167 633,132.5C 631.326,128.911 628.493,127.245 624.5,127.5C 624.5,116.833 624.5,106.167 624.5,95.5C 650.846,95.2635 677.179,95.5968 703.5,96.5C 703.5,106.833 703.5,117.167 703.5,127.5C 699.567,127.411 696.734,129.078 695,132.5C 694.667,159.833 694.333,187.167 694,214.5C 689.006,252.702 667.84,276.202 630.5,285C 599.874,290.879 572.208,284.546 547.5,266C 531.881,251.257 523.381,233.091 522,211.5C 521.667,184.833 521.333,158.167 521,131.5C 518.859,128.679 516.025,127.346 512.5,127.5C 512.5,116.833 512.5,106.167 512.5,95.5 Z"/></g>
<g><path style="opacity:0.954" fill="#fdfdfe" d="M 278.5,96.5 C 298.836,96.3334 319.169,96.5 339.5,97C 357.652,114.318 375.652,131.818 393.5,149.5C 411.985,132.182 430.318,114.682 448.5,97C 468.497,96.5 488.497,96.3334 508.5,96.5C 508.5,106.833 508.5,117.167 508.5,127.5C 504.975,127.346 502.141,128.679 500,131.5C 499.333,169.833 499.333,208.167 500,246.5C 501.954,249.564 504.787,251.23 508.5,251.5C 508.5,262.5 508.5,273.5 508.5,284.5C 481.833,284.5 455.167,284.5 428.5,284.5C 428.5,273.5 428.5,262.5 428.5,251.5C 433.527,251.634 436.694,249.301 438,244.5C 438.667,228.167 438.667,211.833 438,195.5C 423.321,209.513 408.655,223.513 394,237.5C 379.044,224.213 364.377,210.546 350,196.5C 349.333,213.167 349.333,229.833 350,246.5C 351.954,249.564 354.787,251.23 358.5,251.5C 358.5,262.5 358.5,273.5 358.5,284.5C 331.833,284.5 305.167,284.5 278.5,284.5C 278.5,273.5 278.5,262.5 278.5,251.5C 283.527,251.634 286.694,249.301 288,244.5C 288.667,208.167 288.667,171.833 288,135.5C 287.11,130.108 283.943,127.442 278.5,127.5C 278.5,117.167 278.5,106.833 278.5,96.5 Z"/></g>
<g><path style="opacity:1" fill="#364ca1" d="M 160.5,102.5 C 186.145,100.99 211.478,102.99 236.5,108.5C 239.229,108.705 241.562,107.872 243.5,106C 247.821,105.501 252.154,105.334 256.5,105.5C 256.5,120.833 256.5,136.167 256.5,151.5C 248.493,151.666 240.493,151.5 232.5,151C 225.993,144.931 218.326,140.931 209.5,139C 189.87,134.928 170.537,135.928 151.5,142C 140.278,150.366 141.278,157.366 154.5,163C 176.487,165.999 198.487,168.999 220.5,172C 257.226,181.71 270.726,204.877 261,241.5C 254.68,256.486 243.847,266.653 228.5,272C 221.675,274.404 214.675,276.07 207.5,277C 180.034,280.184 153.368,277.017 127.5,267.5C 124.367,267.955 122.034,269.621 120.5,272.5C 115.544,273.494 110.544,273.827 105.5,273.5C 105.5,255.5 105.5,237.5 105.5,219.5C 114.506,219.334 123.506,219.5 132.5,220C 141.033,233.44 153.366,240.44 169.5,241C 181.912,241.822 194.245,241.155 206.5,239C 213.436,237.623 218.936,234.123 223,228.5C 224.833,220.333 221.999,214.499 214.5,211C 210.339,209.263 206.005,208.263 201.5,208C 177.401,206.939 153.735,203.272 130.5,197C 109.023,187.561 99.8561,171.061 103,147.5C 105.355,132.823 112.855,121.656 125.5,114C 136.503,107.609 148.17,103.776 160.5,102.5 Z"/></g>
<g><path style="opacity:1" fill="#6979b9" d="M 289.5,105.5 C 289.221,110.595 289.555,115.595 290.5,120.5C 289.191,118.429 288.525,115.929 288.5,113C 288.503,110.31 288.836,107.81 289.5,105.5 Z"/></g>
<g><path style="opacity:1" fill="#364ca1" d="M 289.5,105.5 C 304.504,105.333 319.504,105.5 334.5,106C 354.015,125.016 373.682,143.849 393.5,162.5C 413.318,143.849 432.985,125.016 452.5,106C 467.496,105.5 482.496,105.333 497.5,105.5C 497.779,110.595 497.445,115.595 496.5,120.5C 493.325,120.84 491.159,122.507 490,125.5C 489.333,167.833 489.333,210.167 490,252.5C 491.605,256.276 494.438,258.276 498.5,258.5C 498.5,263.5 498.5,268.5 498.5,273.5C 478.5,273.5 458.5,273.5 438.5,273.5C 438.173,268.456 438.506,263.456 439.5,258.5C 443.037,257.797 445.537,255.797 447,252.5C 447.667,225.5 447.667,198.5 447,171.5C 429.318,188.682 411.485,205.682 393.5,222.5C 375.515,205.682 357.682,188.682 340,171.5C 339.333,198.167 339.333,224.833 340,251.5C 341.18,255.847 344.013,258.18 348.5,258.5C 348.5,263.5 348.5,268.5 348.5,273.5C 328.5,273.5 308.5,273.5 288.5,273.5C 288.5,268.5 288.5,263.5 288.5,258.5C 292.987,258.18 295.82,255.847 297,251.5C 297.667,209.5 297.667,167.5 297,125.5C 295.841,122.507 293.675,120.84 290.5,120.5C 289.555,115.595 289.221,110.595 289.5,105.5 Z"/></g>
<g><path style="opacity:1" fill="#697ab9" d="M 497.5,105.5 C 498.164,107.81 498.497,110.31 498.5,113C 498.475,115.929 497.809,118.429 496.5,120.5C 497.445,115.595 497.779,110.595 497.5,105.5 Z"/></g>
<g><path style="opacity:1" fill="#6979b9" d="M 522.5,105.5 C 522.221,110.595 522.555,115.595 523.5,120.5C 522.191,118.429 521.525,115.929 521.5,113C 521.503,110.31 521.836,107.81 522.5,105.5 Z"/></g>
<g><path style="opacity:1" fill="#364ca1" d="M 522.5,105.5 C 542.167,105.5 561.833,105.5 581.5,105.5C 581.5,110.5 581.5,115.5 581.5,120.5C 577.474,120.677 574.641,122.677 573,126.5C 572.333,153.833 572.333,181.167 573,208.5C 576.973,228.14 588.973,237.807 609,237.5C 626.448,237.707 637.115,229.374 641,212.5C 642.607,183.864 642.941,155.198 642,126.5C 640.395,122.724 637.562,120.724 633.5,120.5C 633.5,115.5 633.5,110.5 633.5,105.5C 653.167,105.5 672.833,105.5 692.5,105.5C 692.5,110.5 692.5,115.5 692.5,120.5C 688.91,120.544 686.41,122.211 685,125.5C 684.667,153.5 684.333,181.5 684,209.5C 677.598,253.898 651.932,276.231 607,276.5C 564.362,275.537 539.029,254.204 531,212.5C 530.667,183.5 530.333,154.5 530,125.5C 528.841,122.507 526.675,120.84 523.5,120.5C 522.555,115.595 522.221,110.595 522.5,105.5 Z"/></g>
<g><path style="opacity:0.951" fill="#fefcfd" d="M 448.5,324.5 C 451.216,324.678 453.883,325.178 456.5,326C 463.392,330.613 470.725,334.447 478.5,337.5C 480.024,335.142 482.024,333.309 484.5,332C 492.936,330.156 500.436,331.99 507,337.5C 511.633,335.065 516.467,334.898 521.5,337C 526.914,341.241 532.914,344.408 539.5,346.5C 541.298,342.666 542.798,338.666 544,334.5C 548.152,326.01 554.652,323.51 563.5,327C 566.106,328.938 567.939,331.438 569,334.5C 570.547,340.449 571.881,346.449 573,352.5C 573.725,354.949 574.725,357.283 576,359.5C 582.461,364.955 587.794,371.288 592,378.5C 595.403,395.719 601.737,411.719 611,426.5C 612.091,432.097 611.424,437.43 609,442.5C 606.23,444.601 604.23,447.268 603,450.5C 601.062,453.106 598.562,454.939 595.5,456C 585.015,458.171 576.182,455.338 569,447.5C 567.283,443.457 566.117,439.29 565.5,435C 558.886,430.01 551.552,426.343 543.5,424C 539.116,421.283 535.782,417.616 533.5,413C 518.876,415.766 505.21,421.099 492.5,429C 485.766,434.299 481.433,441.132 479.5,449.5C 480.949,452.732 482.116,456.065 483,459.5C 482.934,465.83 482.934,472.163 483,478.5C 485.838,483.674 487.671,489.174 488.5,495C 486.139,506.194 479.472,513.361 468.5,516.5C 458.63,513.959 448.63,512.126 438.5,511C 434.638,510.087 430.972,510.42 427.5,512C 432.34,514.919 437.006,518.086 441.5,521.5C 444.685,525.21 446.518,529.543 447,534.5C 453.495,539.916 455.162,546.583 452,554.5C 447.838,558.997 442.672,561.497 436.5,562C 431.232,563.068 426.232,562.401 421.5,560C 417.081,551.244 410.081,545.911 400.5,544C 396.989,541.153 393.489,538.32 390,535.5C 379.991,538.706 370.157,542.54 360.5,547C 350.632,548.783 344.965,544.783 343.5,535C 345.751,527.667 348.418,520.5 351.5,513.5C 346.636,512.985 342.469,510.985 339,507.5C 335.48,499.95 332.147,492.283 329,484.5C 326.203,480.701 323.036,477.201 319.5,474C 309.778,468.277 300.611,461.777 292,454.5C 289.139,450.112 286.806,445.446 285,440.5C 279.748,435.996 276.581,430.329 275.5,423.5C 262.984,423.164 251.984,418.997 242.5,411C 222.218,413.412 203.551,409.078 186.5,398C 177.63,391.463 171.464,382.963 168,372.5C 165.737,364.062 167.904,357.229 174.5,352C 178.48,350.126 182.48,350.126 186.5,352C 199.299,363.596 214.299,367.929 231.5,365C 251.11,359.143 265.444,365.31 274.5,383.5C 288.213,379.642 301.213,374.142 313.5,367C 328.965,360.916 344.965,358.916 361.5,361C 381.979,364.712 402.313,364.045 422.5,359C 418.732,353.661 418.566,348.161 422,342.5C 426.597,338.65 431.763,337.65 437.5,339.5C 437.778,331.904 441.445,326.904 448.5,324.5 Z"/></g>
<g><path style="opacity:1" fill="#cc0536" d="M 448.5,334.5 C 450.199,334.34 451.866,334.506 453.5,335C 462.737,342.366 473.237,346.866 485,348.5C 486.662,348.612 487.829,347.946 488.5,346.5C 487.652,344.591 487.318,342.591 487.5,340.5C 490.271,340.421 492.937,340.921 495.5,342C 499.939,344.303 504.439,346.47 509,348.5C 511.02,347.968 511.853,346.635 511.5,344.5C 512.873,344.343 514.207,344.51 515.5,345C 520.577,348.401 525.911,351.401 531.5,354C 536.138,355.03 540.805,355.863 545.5,356.5C 546.167,356.167 546.833,355.833 547.5,355.5C 548.868,349.026 550.702,342.693 553,336.5C 555,333.833 557,333.833 559,336.5C 560.908,345.281 563.241,353.948 566,362.5C 571.333,368.5 576.667,374.5 582,380.5C 585.405,397.724 591.738,413.724 601,428.5C 601.667,430.833 601.667,433.167 601,435.5C 597.807,438.725 594.974,442.225 592.5,446C 580.836,447.992 575.002,443.159 575,431.5C 567.601,423.11 558.434,417.61 547.5,415C 544.281,411.448 541.448,407.615 539,403.5C 537.874,402.056 536.374,401.39 534.5,401.5C 518.198,404.819 502.865,410.652 488.5,419C 477.535,426.92 470.868,437.587 468.5,451C 470.401,453.97 471.901,457.136 473,460.5C 472.76,466.486 472.76,472.486 473,478.5C 474.551,483.934 476.384,489.267 478.5,494.5C 476.209,498.229 473.543,501.729 470.5,505C 469.167,505.167 467.833,505.333 466.5,505.5C 453.044,501.943 439.377,500.443 425.5,501C 420.807,503.021 416.64,505.854 413,509.5C 412.333,510.5 412.333,511.5 413,512.5C 416.465,514.963 419.631,517.796 422.5,521C 427.081,522.871 431.248,525.371 435,528.5C 436.929,531.246 436.762,533.913 434.5,536.5C 437.458,538.956 440.291,541.622 443,544.5C 443.825,546.701 443.325,548.534 441.5,550C 436.955,552.144 432.288,552.644 427.5,551.5C 424.727,547.223 421.393,543.39 417.5,540C 412.954,537.698 408.287,535.698 403.5,534C 400.066,529.81 396.4,525.81 392.5,522C 391.833,521.833 391.167,521.667 390.5,521.5C 386.664,524.493 382.664,527.327 378.5,530C 375.5,530.333 372.5,530.667 369.5,531C 352.324,541.825 348.824,538.325 359,520.5C 359.833,519.667 360.667,518.833 361.5,518C 370.23,519.076 375.73,515.576 378,507.5C 377.097,506.299 375.931,505.465 374.5,505C 367.167,504.667 359.833,504.333 352.5,504C 350.754,503.529 349.087,502.862 347.5,502C 343.916,492.928 339.75,484.094 335,475.5C 331.5,472 328,468.5 324.5,465C 315.902,460.119 307.735,454.619 300,448.5C 296.933,440.695 292.599,433.695 287,427.5C 285.553,423.23 284.053,419.063 282.5,415C 267.73,414.304 254.73,409.304 243.5,400C 216.444,405.21 194.944,396.71 179,374.5C 177.543,370.259 177.209,365.926 178,361.5C 178.725,360.941 179.558,360.608 180.5,360.5C 188.86,366.846 198.194,371.346 208.5,374C 222.56,374.544 236.56,374.21 250.5,373C 253.196,373.765 255.696,374.932 258,376.5C 261.167,381.5 264.333,386.5 267.5,391.5C 269.273,392.087 271.106,392.42 273,392.5C 278.287,391.887 283.454,390.72 288.5,389C 300.047,383.393 311.714,378.059 323.5,373C 327.797,371.842 332.131,370.842 336.5,370C 358.793,371.516 381.126,372.183 403.5,372C 416.44,370.683 428.774,367.349 440.5,362C 436.908,359.287 433.408,356.453 430,353.5C 428.991,351.975 428.491,350.308 428.5,348.5C 435.823,348.44 442.823,349.94 449.5,353C 452.801,353.997 456.134,354.33 459.5,354C 460.451,353.282 460.617,352.449 460,351.5C 455.648,348.145 451.648,344.479 448,340.5C 447.322,338.402 447.489,336.402 448.5,334.5 Z"/></g>
<g><path style="opacity:1" fill="#fefcfc" d="M 364.5,447.5 C 366.857,447.337 369.19,447.503 371.5,448C 381.363,451.732 391.363,455.066 401.5,458C 407.451,458.313 413.284,458.479 419,458.5C 419.837,460.838 420.67,463.172 421.5,465.5C 420.224,470.719 417.89,475.386 414.5,479.5C 409.424,481.28 406.424,479.446 405.5,474C 398.918,473.19 392.418,473.357 386,474.5C 385.741,478.145 387.241,480.978 390.5,483C 395.396,486.277 400.396,489.277 405.5,492C 405.055,495.789 403.055,497.123 399.5,496C 394.793,490.535 388.793,487.535 381.5,487C 378.898,486.117 376.731,484.617 375,482.5C 369.793,471.337 366.293,459.671 364.5,447.5 Z"/></g>
<g><path style="opacity:1" fill="#fef9fa" d="M 447.5,471.5 C 452.324,476.342 455.991,482.009 458.5,488.5C 458.167,489.167 457.833,489.833 457.5,490.5C 450.868,491.506 444.201,491.506 437.5,490.5C 437.34,488.801 437.506,487.134 438,485.5C 441.388,480.952 444.555,476.286 447.5,471.5 Z"/></g>
<g><path style="opacity:0.595" fill="#e31a31" d="M 473.5,533.5 C 483.636,532.463 487.47,536.796 485,546.5C 482.045,550.277 478.212,551.443 473.5,550C 466.912,544.461 466.912,538.961 473.5,533.5 Z M 472.5,537.5 C 473.638,540.304 473.805,543.304 473,546.5C 471.185,543.616 471.018,540.616 472.5,537.5 Z M 481.5,537.5 C 483.94,540.261 484.107,543.261 482,546.5C 481.5,545.5 481,544.5 480.5,543.5C 481.348,541.591 481.682,539.591 481.5,537.5 Z M 476.5,538.5 C 478.983,538.73 479.483,539.397 478,540.5C 476.97,540.164 476.47,539.497 476.5,538.5 Z M 476.5,543.5 C 479.229,545.139 479.562,546.805 477.5,548.5C 476.833,548.333 476.167,548.167 475.5,548C 476.38,546.644 476.714,545.144 476.5,543.5 Z"/></g>
</svg>
